<svg width="164" height="155" viewBox="0 0 164 155" fill="none" xmlns="http://www.w3.org/2000/svg">
<path d="M135.784 64.4734L137.538 64.1629L137.929 62.375L138.32 64.1629L140.074 64.4771L138.328 64.8886L137.929 66.5755L137.53 64.8886L135.784 64.4734Z" fill="#EBEBEB"/>
<path d="M11.2276 37.1199L12.9853 36.8057L13.3763 35.0215L13.7673 36.8057L15.5249 37.1236L13.775 37.535L13.3763 39.222L12.9775 37.535L11.2276 37.1199Z" fill="#EBEBEB"/>
<path d="M148.858 27.7134L150.616 27.3992L151.007 25.6113L151.398 27.3992L153.156 27.7134L151.406 28.1249L151.007 29.8118L150.608 28.1249L148.858 27.7134Z" fill="#EBEBEB"/>
<path d="M121.948 80.448L123.705 80.1375L124.096 78.3496L124.487 80.1375L126.245 80.4517L124.495 80.8632L124.096 82.5501L123.698 80.8632L121.948 80.448Z" fill="#EBEBEB"/>
<path d="M29.3228 63.5943L31.0766 63.2801L31.4676 61.4922L31.8586 63.2801L33.6163 63.5943L31.8664 64.0057L31.4676 65.6964L31.0688 64.0057L29.3228 63.5943Z" fill="#EBEBEB"/>
<path d="M32.7764 78.4128L33.7559 78.237L33.9766 77.2383L34.1934 78.237L35.1767 78.4128L34.1973 78.6409L33.9766 79.5873L33.752 78.6409L32.7764 78.4128Z" fill="#EBEBEB"/>
<path d="M110.418 22.278L111.398 22.1022L111.618 21.1035L111.839 22.1022L112.819 22.278L111.843 22.5099L111.618 23.4525L111.394 22.5099L110.418 22.278Z" fill="#EBEBEB"/>
<path d="M81.6069 1.17449L82.5864 0.998689L82.807 0L83.0277 0.998689L84.0072 1.17449L83.0316 1.40639L82.807 2.34898L82.5825 1.40639L81.6069 1.17449Z" fill="#EBEBEB"/>
<path d="M47.2207 55.7389L48.2002 55.5631L48.4208 54.5645L48.6415 55.5631L49.621 55.7389L48.6454 55.9671L48.4208 56.9134L48.1963 55.9671L47.2207 55.7389Z" fill="#EBEBEB"/>
<path d="M26.485 16.8991L27.4645 16.7233L27.6852 15.7246L27.902 16.7233L28.8854 16.8991L27.9059 17.131L27.6852 18.0736L27.4607 17.131L26.485 16.8991Z" fill="#EBEBEB"/>
<path d="M120.686 53.735L121.665 53.5592L121.882 52.5605L122.102 53.5592L123.082 53.735L122.106 53.9669L121.882 54.9095L121.661 53.9669L120.686 53.735Z" fill="#EBEBEB"/>
<path d="M17.1743 64.0085L18.1538 63.8327L18.3744 62.834L18.5951 63.8327L19.5746 64.0085L18.599 64.2366L18.3744 65.183L18.1499 64.2366L17.1743 64.0085Z" fill="#EBEBEB"/>
<path d="M128.711 9.3057C128.781 9.29783 128.845 9.26547 128.892 9.21479C128.939 9.16411 128.964 9.09863 128.964 9.03078C128.964 8.96293 128.939 8.89745 128.892 8.84677C128.845 8.79608 128.781 8.76373 128.711 8.75586C128.641 8.76373 128.577 8.79608 128.53 8.84677C128.484 8.89745 128.458 8.96293 128.458 9.03078C128.458 9.09863 128.484 9.16411 128.53 9.21479C128.577 9.26547 128.641 9.29783 128.711 9.3057Z" fill="#EBEBEB"/>
<path d="M139.102 76.1065C139.172 76.0986 139.236 76.0663 139.283 76.0156C139.33 75.9649 139.355 75.8994 139.355 75.8316C139.355 75.7637 139.33 75.6982 139.283 75.6475C139.236 75.5969 139.172 75.5645 139.102 75.5566C139.032 75.5645 138.968 75.5969 138.921 75.6475C138.875 75.6982 138.849 75.7637 138.849 75.8316C138.849 75.8994 138.875 75.9649 138.921 76.0156C138.968 76.0663 139.032 76.0986 139.102 76.1065Z" fill="#EBEBEB"/>
<path d="M54.8786 22.2784C54.9484 22.2705 55.0127 22.2381 55.0594 22.1874C55.1061 22.1368 55.1318 22.0713 55.1318 22.0034C55.1318 21.9356 55.1061 21.8701 55.0594 21.8194C55.0127 21.7687 54.9484 21.7364 54.8786 21.7285C54.8089 21.7364 54.7445 21.7687 54.6978 21.8194C54.6512 21.8701 54.6254 21.9356 54.6254 22.0034C54.6254 22.0713 54.6512 22.1368 54.6978 22.1874C54.7445 22.2381 54.8089 22.2705 54.8786 22.2784Z" fill="#EBEBEB"/>
<path d="M126.245 31.2627C126.315 31.2549 126.379 31.2225 126.426 31.1718C126.472 31.1211 126.498 31.0557 126.498 30.9878C126.498 30.92 126.472 30.8545 126.426 30.8038C126.379 30.7531 126.315 30.7208 126.245 30.7129C126.175 30.7208 126.111 30.7531 126.064 30.8038C126.018 30.8545 125.992 30.92 125.992 30.9878C125.992 31.0557 126.018 31.1211 126.064 31.1718C126.111 31.2225 126.175 31.2549 126.245 31.2627Z" fill="#EBEBEB"/>
<path d="M109.938 49.8154C109.98 49.8038 110.017 49.7793 110.044 49.7456C110.07 49.7118 110.084 49.6707 110.084 49.6284C110.084 49.5862 110.07 49.545 110.044 49.5113C110.017 49.4775 109.98 49.453 109.938 49.4414C109.896 49.453 109.859 49.4775 109.833 49.5113C109.807 49.545 109.792 49.5862 109.792 49.6284C109.792 49.6707 109.807 49.7118 109.833 49.7456C109.859 49.7793 109.896 49.8038 109.938 49.8154Z" fill="#EBEBEB"/>
<path d="M88.1536 13.0615C88.1956 13.0499 88.2326 13.0254 88.259 12.9917C88.2853 12.9579 88.2996 12.9168 88.2996 12.8745C88.2996 12.8323 88.2853 12.7911 88.259 12.7574C88.2326 12.7236 88.1956 12.6991 88.1536 12.6875C88.1115 12.6991 88.0745 12.7236 88.0481 12.7574C88.0218 12.7911 88.0075 12.8323 88.0075 12.8745C88.0075 12.9168 88.0218 12.9579 88.0481 12.9917C88.0745 13.0254 88.1115 13.0499 88.1536 13.0615Z" fill="#EBEBEB"/>
<path d="M107.995 13.7529C108.037 13.7413 108.074 13.7168 108.1 13.6831C108.127 13.6493 108.141 13.6082 108.141 13.5659C108.141 13.5237 108.127 13.4825 108.1 13.4488C108.074 13.415 108.037 13.3905 107.995 13.3789C107.953 13.3905 107.916 13.415 107.889 13.4488C107.863 13.4825 107.849 13.5237 107.849 13.5659C107.849 13.6082 107.863 13.6493 107.889 13.6831C107.916 13.7168 107.953 13.7413 107.995 13.7529Z" fill="#EBEBEB"/>
<path d="M37.7628 34.6329C37.9076 34.6329 38.0464 34.5774 38.1488 34.4785C38.2512 34.3795 38.3087 34.2454 38.3087 34.1055C38.3087 33.9656 38.2512 33.8315 38.1488 33.7326C38.0464 33.6337 37.9076 33.5781 37.7628 33.5781C37.618 33.5781 37.4792 33.6337 37.3768 33.7326C37.2744 33.8315 37.2169 33.9656 37.2169 34.1055C37.2169 34.2454 37.2744 34.3795 37.3768 34.4785C37.4792 34.5774 37.618 34.6329 37.7628 34.6329Z" fill="#EBEBEB"/>
<path d="M105.42 15.5374C105.557 15.5263 105.684 15.4661 105.776 15.3687C105.869 15.2714 105.92 15.144 105.92 15.0119C105.92 14.8797 105.869 14.7523 105.776 14.655C105.684 14.5576 105.557 14.4975 105.42 14.4863C105.284 14.4975 105.157 14.5576 105.064 14.655C104.972 14.7523 104.92 14.8797 104.92 15.0119C104.92 15.144 104.972 15.2714 105.064 15.3687C105.157 15.4661 105.284 15.5263 105.42 15.5374Z" fill="#EBEBEB"/>
<path d="M153.291 103.081L148.212 103.186L145.633 103.227C144.77 103.246 143.903 103.227 143.039 103.249H142.869V103.081L142.846 98.8843V98.6973H143.039L148.165 98.7197C149.876 98.7197 151.584 98.7609 153.291 98.7796H153.399V98.8843C153.399 99.595 153.365 100.302 153.349 101.001L153.291 103.081ZM153.291 103.081L153.237 100.968C153.237 100.272 153.194 99.5837 153.186 98.8955L153.291 99.0002C151.584 99.0189 149.876 99.0601 148.165 99.0601L143.039 99.0825L143.233 98.8955L143.214 103.081L143.039 102.916C143.883 102.916 144.727 102.916 145.575 102.935L148.123 102.98L153.291 103.081Z" fill="#EBEBEB"/>
<path d="M147.573 108.359L142.493 108.464L139.915 108.505C139.052 108.505 138.185 108.505 137.321 108.527H137.166V108.359L137.143 104.173V103.986H137.337L142.463 104.013C144.174 104.013 145.881 104.054 147.588 104.072H147.697V104.173C147.697 104.884 147.666 105.591 147.646 106.29L147.573 108.359ZM147.573 108.359L147.519 106.246C147.499 105.55 147.476 104.862 147.468 104.173L147.573 104.278C145.866 104.297 144.158 104.338 142.447 104.338L137.321 104.36L137.515 104.173V108.359L137.341 108.194C138.185 108.194 139.029 108.194 139.876 108.213L142.424 108.258L147.573 108.359Z" fill="#EBEBEB"/>
<path d="M159.013 108.359L153.93 108.464L151.352 108.505C150.488 108.505 149.625 108.505 148.762 108.527H148.587V108.359L148.568 104.173V103.986H148.781L153.907 104.013C155.614 104.013 157.321 104.054 159.033 104.072H159.137V104.173C159.137 104.884 159.102 105.591 159.087 106.29L159.013 108.359ZM159.013 108.359L158.955 106.246C158.955 105.55 158.912 104.862 158.905 104.173L159.013 104.278C157.302 104.297 155.595 104.338 153.887 104.338L148.762 104.36L148.951 104.173L148.932 108.359L148.762 108.194C149.605 108.194 150.446 108.194 151.293 108.213L153.841 108.258L159.013 108.359Z" fill="#EBEBEB"/>
<path d="M21.3438 103.081L16.2605 103.186L13.6821 103.227C12.8227 103.246 11.9555 103.227 11.0921 103.249H10.9179V103.081L10.8985 98.8843V98.6973H11.096L16.2218 98.7197C17.9291 98.7197 19.6364 98.7609 21.3476 98.7796H21.4522V98.8843C21.4522 99.595 21.4173 100.302 21.4018 101.001L21.3438 103.081ZM21.3438 103.081L21.2896 100.968C21.2896 100.272 21.2431 99.5837 21.2354 98.8955L21.3438 99.0002C19.6326 99.0189 17.9253 99.0601 16.2179 99.0601L11.0921 99.0825L11.2857 98.8955L11.2625 103.081L11.0921 102.916C11.9361 102.916 12.7762 102.916 13.6241 102.935L16.1715 102.98L21.3438 103.081Z" fill="#EBEBEB"/>
<path d="M15.6257 108.359L10.5425 108.464L7.96411 108.505C7.10077 108.505 6.23744 108.505 5.37023 108.527H5.19988V108.359L5.18053 104.173V103.986H5.3741L10.4999 104.013C12.2111 104.013 13.9184 104.054 15.6296 104.072H15.7341V104.173C15.7341 104.884 15.6993 105.591 15.6838 106.29L15.6257 108.359ZM15.6257 108.359L15.5677 106.246C15.5677 105.55 15.5251 104.862 15.5173 104.173L15.6257 104.278C13.9145 104.297 12.2072 104.338 10.496 104.338L5.37023 104.36L5.5638 104.173V108.359L5.38958 108.194C6.23744 108.194 7.07754 108.194 7.92539 108.213L10.4728 108.258L15.6257 108.359Z" fill="#EBEBEB"/>
<path d="M107.484 43.4306L102.401 43.5279L99.8223 43.569C98.9628 43.569 98.0956 43.569 97.2323 43.5877H97.0581V43.4194V39.2339V39.0469H97.2555L102.381 39.0693C104.089 39.0693 105.796 39.1105 107.507 39.1292H107.612V39.2302C107.612 39.9408 107.577 40.644 107.561 41.3435L107.484 43.4306ZM107.484 43.4306L107.426 41.3136C107.426 40.6178 107.383 39.9296 107.376 39.2451L107.484 39.3461C105.773 39.3648 104.065 39.406 102.358 39.406L97.2323 39.4321L97.4259 39.2451L97.4026 43.4306L97.2323 43.2623C98.0763 43.2623 98.9164 43.2623 99.7642 43.2848L102.312 43.3259L107.484 43.4306Z" fill="#EBEBEB"/>
<path d="M101.762 48.7073L96.6826 48.812L94.1042 48.8532C93.2408 48.8532 92.3775 48.8532 91.5103 48.8532H91.3399V48.6849L91.3167 44.4994V44.3086H91.5103L96.6361 44.331C98.3473 44.331 100.055 44.3722 101.762 44.3909H101.87V44.4919C101.87 45.2026 101.835 45.9057 101.82 46.6052L101.762 48.7073ZM101.762 48.7073L101.708 46.5902C101.708 45.8945 101.665 45.2063 101.657 44.5218L101.762 44.6228C100.055 44.6228 98.3473 44.6826 96.6361 44.6826L91.5103 44.7088L91.7039 44.5218L91.6845 48.7073L91.5103 48.539C92.3581 48.539 93.1982 48.539 94.0461 48.5614L96.5935 48.6026L101.762 48.7073Z" fill="#EBEBEB"/>
<path d="M113.202 48.7073L108.119 48.812L105.54 48.8532C104.681 48.8532 103.814 48.8532 102.95 48.8532H102.776V48.6849L102.757 44.4994V44.3086H102.95L108.076 44.331C109.783 44.331 111.491 44.3722 113.202 44.3909H113.306V44.4919C113.306 45.2026 113.275 45.9057 113.256 46.6052L113.202 48.7073ZM113.202 48.7073L113.148 46.5902C113.148 45.8945 113.101 45.2063 113.097 44.5218L113.202 44.6228C111.491 44.6228 109.783 44.6826 108.076 44.6826L102.95 44.7088L103.144 44.5218L103.121 48.7073L102.95 48.539C103.794 48.539 104.638 48.539 105.482 48.5614L108.03 48.6026L113.202 48.7073Z" fill="#EBEBEB"/>
<path d="M152.699 12.6245L147.619 12.7292L145.041 12.7704C144.178 12.7704 143.31 12.7704 142.447 12.7928H142.277V12.6245L142.254 8.43897V8.25195H142.447L147.573 8.2744C149.284 8.2744 150.991 8.31928 152.699 8.33798H152.807V8.43897C152.807 9.14965 152.772 9.85659 152.753 10.5523L152.699 12.6245ZM152.699 12.6245L152.652 10.5112C152.652 9.81171 152.61 9.12347 152.602 8.43897L152.706 8.53996C150.999 8.53996 149.292 8.59981 147.581 8.60355L142.455 8.62599L142.648 8.43897L142.629 12.6245L142.455 12.4562C143.299 12.4562 144.143 12.4562 144.991 12.4786L147.538 12.5198L152.699 12.6245Z" fill="#EBEBEB"/>
<path d="M158.417 17.9017L153.338 18.0064L150.759 18.0475C149.896 18.0662 149.033 18.0475 148.165 18.0662H148.007V17.8979L147.983 13.7124V13.5254H148.177L153.303 13.5478C155.014 13.5478 156.721 13.5927 158.429 13.6114H158.537V13.7124C158.537 14.4231 158.502 15.13 158.487 15.8257L158.417 17.9017ZM158.417 17.9017L158.363 15.7883C158.363 15.0889 158.32 14.4006 158.312 13.7162L158.417 13.8171C156.71 13.8358 155.002 13.877 153.291 13.8807L148.165 13.9032L148.359 13.7162L148.34 17.9017L148.165 17.7334C149.013 17.7334 149.853 17.7333 150.701 17.7558L153.249 17.7969L158.417 17.9017Z" fill="#EBEBEB"/>
<path d="M15.6257 12.6284L10.5425 12.7331L7.96411 12.7743C7.10077 12.7743 6.23744 12.7743 5.37023 12.7967H5.19988V12.6284L5.18053 8.44288V8.25586H5.3741L10.4999 8.28204C12.2111 8.28204 13.9184 8.32319 15.6296 8.34189H15.7341V8.44288C15.7341 9.15356 15.6993 9.86049 15.6838 10.56L15.6257 12.6284ZM15.6257 12.6284L15.5677 10.5151C15.5677 9.81561 15.5251 9.12737 15.5173 8.44288L15.6257 8.54387C13.9145 8.56631 12.2072 8.60372 10.496 8.60746L5.37023 8.6299L5.5638 8.44288V12.6284L5.37023 12.4825C6.21808 12.4825 7.05819 12.4825 7.90604 12.4825L10.4535 12.5237L15.6257 12.6284Z" fill="#EBEBEB"/>
<path d="M30.6197 11.2441H8.18457V37.5355H30.6197V11.2441Z" fill="#EBEBEB"/>
<path d="M28.0569 13.6445H10.7476V35.1369H28.0569V13.6445Z" fill="white"/>
<path d="M11.4212 13.6445H10.7476V35.1369H11.4212V13.6445Z" fill="#DBDBDB"/>
<path d="M31.2935 11.2441H30.6198V37.5355H31.2935V11.2441Z" fill="#DBDBDB"/>
<path d="M21.4444 18.5195H17.3639V30.2682H21.4444V18.5195Z" fill="#DBDBDB"/>
<path d="M25.0372 27.4437H13.7673V21.3281H25.0372V27.4437ZM14.1545 27.0697H24.65V21.7022H14.1545V27.0697Z" fill="#EBEBEB"/>
<path d="M48.2813 43.8711H25.8461V70.1624H48.2813V43.8711Z" fill="#EBEBEB"/>
<path d="M45.7185 46.2695H28.4092V67.7619H45.7185V46.2695Z" fill="white"/>
<path d="M29.0828 46.2695H28.4092V67.7619H29.0828V46.2695Z" fill="#DBDBDB"/>
<path d="M48.955 43.8711H48.2814V70.1624H48.955V43.8711Z" fill="#DBDBDB"/>
<path d="M38.8853 51.8262H35.3894V60.3655H38.8853V51.8262Z" fill="#EBEBEB"/>
<path d="M41.9552 63.0896H32.1759V56.8281H41.9552V63.0896ZM32.563 62.7155H41.5681V57.2022H32.563V62.7155Z" fill="#DBDBDB"/>
<path d="M109.919 126.141H159.83L161.437 95.541H108.312L109.919 126.141Z" fill="#EBEBEB"/>
<path d="M156.171 109.549H112.215L111.615 98.9258H156.88L156.171 109.549ZM112.582 109.175H155.807L156.462 99.3036H112.021L112.582 109.175Z" fill="#DBDBDB"/>
<path d="M155.575 121.768H113.477L112.985 112.182H156.198L155.575 121.768ZM113.848 121.394H155.211L155.78 112.556H113.396L113.848 121.394Z" fill="#DBDBDB"/>
<path d="M139.249 105.39H129.931L129.586 102.828H139.59L139.249 105.39ZM130.271 105.016H138.905L139.149 103.21H130.031L130.271 105.016Z" fill="#DBDBDB"/>
<path d="M139.249 118.257H129.931L129.586 115.695H139.59L139.249 118.257ZM130.271 117.883H138.905L139.149 116.077H130.031L130.271 117.883Z" fill="#DBDBDB"/>
<path d="M116.841 126.141L116.353 129.473L115.381 136.172H113.473V126.141H116.841Z" fill="#EBEBEB"/>
<path d="M116.841 126.141L116.353 129.473H113.473V126.141H116.841Z" fill="#DBDBDB"/>
<path d="M152.908 126.141L153.392 129.473L154.367 136.172H156.276V126.141H152.908Z" fill="#EBEBEB"/>
<path d="M152.908 126.141L153.392 129.473H156.276V126.141H152.908Z" fill="#DBDBDB"/>
<path d="M9.19525 153.121C7.82415 153.256 6.44643 153.319 5.06827 153.308C3.6901 153.319 2.31238 153.256 0.941284 153.121C2.31266 152.99 3.69018 152.927 5.06827 152.934C6.44635 152.927 7.82387 152.99 9.19525 153.121Z" fill="#477FFF"/>
<path d="M10.4494 151.912C9.07834 152.047 7.70062 152.11 6.32246 152.099C4.9443 152.11 3.56657 152.047 2.19548 151.912C3.56685 151.781 4.94438 151.718 6.32246 151.725C7.70054 151.718 9.07806 151.781 10.4494 151.912Z" fill="#477FFF"/>
<path d="M11.7618 150.713C10.3907 150.848 9.01302 150.911 7.63485 150.9C6.25669 150.91 4.87898 150.848 3.50787 150.713C4.87926 150.582 6.25677 150.519 7.63485 150.526C9.01294 150.519 10.3905 150.581 11.7618 150.713Z" fill="#477FFF"/>
<path d="M13.0279 149.512C11.6565 149.643 10.279 149.705 8.90088 149.699C7.52271 149.709 6.14498 149.647 4.7739 149.512C6.14527 149.38 7.52279 149.318 8.90088 149.325C10.279 149.318 11.6565 149.38 13.0279 149.512Z" fill="#477FFF"/>
<path d="M14.3018 148.311C12.9305 148.442 11.5529 148.505 10.1749 148.498C8.7967 148.509 7.41898 148.446 6.04788 148.311C7.41898 148.176 8.7967 148.114 10.1749 148.124C11.5529 148.118 12.9305 148.18 14.3018 148.311Z" fill="#477FFF"/>
<path d="M15.6024 147.11C14.2323 147.241 12.8561 147.304 11.4793 147.297C10.1012 147.304 8.72367 147.241 7.35229 147.11C8.72338 146.975 10.1011 146.912 11.4793 146.923C12.8561 146.914 14.2324 146.977 15.6024 147.11Z" fill="#477FFF"/>
<path d="M16.8489 145.909C15.4775 146.04 14.1 146.103 12.722 146.096C11.3439 146.103 9.96635 146.04 8.59497 145.909C9.96607 145.774 11.3438 145.711 12.722 145.722C14.1001 145.711 15.4778 145.774 16.8489 145.909Z" fill="#477FFF"/>
<path d="M18.1539 144.71C16.7826 144.841 15.405 144.903 14.027 144.897C12.6489 144.903 11.2714 144.841 9.89998 144.71C11.2711 144.575 12.6488 144.512 14.027 144.523C15.4051 144.512 16.7828 144.575 18.1539 144.71Z" fill="#477FFF"/>
<path d="M19.3848 143.508C18.0135 143.64 16.6359 143.702 15.2578 143.692C13.8798 143.702 12.5022 143.64 11.1308 143.508C12.5019 143.374 13.8797 143.311 15.2578 143.321C16.636 143.311 18.0137 143.373 19.3848 143.508Z" fill="#477FFF"/>
<path d="M20.7013 142.305C19.3302 142.44 17.9525 142.502 16.5743 142.492C15.1962 142.502 13.8185 142.44 12.4474 142.305C13.8187 142.173 15.1963 142.111 16.5743 142.118C17.9524 142.111 19.3299 142.173 20.7013 142.305Z" fill="#477FFF"/>
<path d="M21.9747 141.104C20.6036 141.239 19.2259 141.301 17.8477 141.291C16.4696 141.301 15.0919 141.239 13.7208 141.104C15.0921 140.972 16.4697 140.91 17.8477 140.917C19.2258 140.91 20.6033 140.972 21.9747 141.104Z" fill="#477FFF"/>
<path d="M23.2602 139.902C21.889 140.035 20.5114 140.098 19.1333 140.089C17.7551 140.1 16.3774 140.038 15.0063 139.902C16.3776 139.771 17.7552 139.709 19.1333 139.715C20.5113 139.709 21.8888 139.771 23.2602 139.902Z" fill="#477FFF"/>
<path d="M155.188 153.121C157.933 152.871 160.697 152.871 163.442 153.121C160.697 153.37 157.933 153.37 155.188 153.121Z" fill="#477FFF"/>
<path d="M153.934 151.914C156.679 151.664 159.443 151.664 162.188 151.914C159.443 152.163 156.679 152.163 153.934 151.914Z" fill="#477FFF"/>
<path d="M152.621 150.712C155.367 150.463 158.13 150.463 160.875 150.712C158.13 150.962 155.367 150.962 152.621 150.712Z" fill="#477FFF"/>
<path d="M151.355 149.511C154.101 149.262 156.864 149.262 159.609 149.511C158.238 149.646 156.86 149.709 155.482 149.698C154.104 149.705 152.727 149.642 151.355 149.511Z" fill="#477FFF"/>
<path d="M150.082 148.311C151.453 148.18 152.831 148.118 154.209 148.124C155.587 148.114 156.964 148.176 158.336 148.311C156.964 148.446 155.587 148.509 154.209 148.498C152.831 148.505 151.453 148.442 150.082 148.311Z" fill="#477FFF"/>
<path d="M148.8 147.11C150.17 146.977 151.547 146.914 152.923 146.923C154.302 146.912 155.679 146.975 157.05 147.11C154.306 147.359 151.544 147.359 148.8 147.11Z" fill="#477FFF"/>
<path d="M147.534 145.91C150.28 145.66 153.043 145.66 155.788 145.91C153.043 146.159 150.28 146.159 147.534 145.91Z" fill="#477FFF"/>
<path d="M146.23 144.708C148.975 144.459 151.738 144.459 154.483 144.708C151.738 144.958 148.975 144.958 146.23 144.708Z" fill="#477FFF"/>
<path d="M144.998 143.507C147.744 143.258 150.507 143.258 153.252 143.507C150.507 143.752 147.744 143.752 144.998 143.507Z" fill="#477FFF"/>
<path d="M143.682 142.304C146.427 142.055 149.191 142.055 151.936 142.304C149.191 142.554 146.427 142.554 143.682 142.304Z" fill="#477FFF"/>
<path d="M142.408 141.103C145.154 140.854 147.917 140.854 150.662 141.103C147.917 141.352 145.154 141.352 142.408 141.103Z" fill="#477FFF"/>
<path d="M141.123 139.902C143.868 139.653 146.632 139.653 149.377 139.902C148.006 140.037 146.628 140.099 145.25 140.089C143.872 140.097 142.494 140.035 141.123 139.902Z" fill="#477FFF"/>
<path d="M22.0679 139.742H142.683L156.865 153.275H7.51889L22.0679 139.742Z" fill="#477FFF"/>
<path opacity="0.1" d="M24.5648 139.742L10.1204 153.275H8.62599L23.175 139.742H24.5648Z" fill="black"/>
<path opacity="0.1" d="M27.8558 139.742L14.205 153.275H12.5868L26.555 139.742H27.8558Z" fill="black"/>
<path opacity="0.1" d="M33.6048 139.742L21.3245 153.275H16.7833L29.9385 139.742H33.6048Z" fill="black"/>
<path opacity="0.1" d="M36.8956 139.742L25.4012 153.275H23.7868L35.5909 139.742H36.8956Z" fill="black"/>
<path opacity="0.1" d="M42.633 139.742L32.5285 153.275H27.9834L38.9745 139.742H42.633Z" fill="black"/>
<path opacity="0.1" d="M45.9237 139.742L36.6051 153.275H34.9907L44.6229 139.742H45.9237Z" fill="black"/>
<path opacity="0.1" d="M51.673 139.742L43.7288 153.275H39.1876L48.0029 139.742H51.673Z" fill="black"/>
<path opacity="0.1" d="M54.9597 139.742L47.8091 153.275H46.1908L53.6589 139.742H54.9597Z" fill="black"/>
<path opacity="0.1" d="M60.705 139.742L54.9327 153.275H50.3914L57.0426 139.742H60.705Z" fill="black"/>
<path opacity="0.1" d="M63.9958 139.742L59.0133 153.275H57.395L62.6912 139.742H63.9958Z" fill="black"/>
<path opacity="0.1" d="M69.7409 139.742L66.1327 153.275H61.5915L66.0746 139.742H69.7409Z" fill="black"/>
<path opacity="0.1" d="M73.0278 139.742L70.2172 153.275H68.5989L71.727 139.742H73.0278Z" fill="black"/>
<path opacity="0.1" d="M78.7732 139.742L77.3408 153.275H72.7957L75.1108 139.742H78.7732Z" fill="black"/>
<path opacity="0.1" d="M82.064 139.742L81.4175 153.275H79.8031L80.7593 139.742H82.064Z" fill="black"/>
<path opacity="0.1" d="M88.5408 153.275H83.9996L84.1428 139.742H87.8091L88.5408 153.275Z" fill="black"/>
<path opacity="0.1" d="M92.6173 153.275H91.0029L89.7912 139.742H91.0997L92.6173 153.275Z" fill="black"/>
<path opacity="0.1" d="M99.7449 153.275H95.1998L93.1789 139.742H96.8375L99.7449 153.275Z" fill="black"/>
<path opacity="0.1" d="M103.826 153.275H102.207L98.8275 139.742H100.128L103.826 153.275Z" fill="black"/>
<path opacity="0.1" d="M110.945 153.275H106.404L102.215 139.742H105.877L110.945 153.275Z" fill="black"/>
<path opacity="0.1" d="M115.026 153.275H113.407L107.863 139.742H109.168L115.026 153.275Z" fill="black"/>
<path opacity="0.1" d="M122.149 153.275H117.608L111.247 139.742H114.91L122.149 153.275Z" fill="black"/>
<path opacity="0.1" d="M126.233 153.275H124.611L116.895 139.742H118.2L126.233 153.275Z" fill="black"/>
<path opacity="0.1" d="M133.353 153.275H128.808L120.279 139.742H123.942L133.353 153.275Z" fill="black"/>
<path opacity="0.1" d="M137.43 153.275H135.815L125.932 139.742H127.232L137.43 153.275Z" fill="black"/>
<path opacity="0.1" d="M144.557 153.275H140.012L129.315 139.742H132.977L144.557 153.275Z" fill="black"/>
<path opacity="0.1" d="M148.634 153.275H147.015L134.967 139.742H136.268L148.634 153.275Z" fill="black"/>
<path opacity="0.1" d="M155.757 153.275H151.212L138.351 139.742H142.014L155.757 153.275Z" fill="black"/>
<path d="M156.861 153.273H7.51889V154.298H156.861V153.273Z" fill="#477FFF"/>
<path opacity="0.2" d="M156.861 153.273H7.51889V154.298H156.861V153.273Z" fill="black"/>
<g opacity="0.1">
<path d="M115.026 146.096C115.026 148.549 100.574 150.539 82.7455 150.539C64.9174 150.539 50.4691 148.549 50.4691 146.096C50.4691 143.642 64.9213 141.648 82.7455 141.648C100.57 141.648 115.026 143.638 115.026 146.096Z" fill="black"/>
</g>
<path d="M2.94664 136.181L22.7569 136.088L42.5711 136.054L82.1917 135.994L121.812 136.054L141.626 136.088L161.437 136.181L141.626 136.271L121.812 136.305L82.1917 136.364L42.5711 136.305L22.7569 136.271L2.94664 136.181Z" fill="#263238"/>
<path d="M34.9599 94.9133C33.4887 93.5219 31.5878 91.8424 29.3385 92.4409C27.2247 93.0057 26.4156 95.235 26.0362 97.094C25.5484 99.4916 25.169 101.908 24.7741 104.32C24.3792 106.733 23.9998 109.183 23.6397 111.633C23.4333 113.009 23.2306 114.387 23.0319 115.766C22.9351 116.454 22.8345 117.143 22.7377 117.835C22.6409 118.527 22.5209 119.185 22.4822 119.866C22.4822 120.083 22.8229 120.112 22.8693 119.907C23.1442 118.758 23.2565 117.562 23.4307 116.398C23.6049 115.235 23.7791 114.053 23.9572 112.879C24.3095 110.548 24.6773 108.222 25.0373 105.891C25.3974 103.561 25.7768 101.238 26.1639 98.9118C26.4891 96.9369 26.644 94.4869 28.452 93.1853C28.9437 92.8616 29.5124 92.6637 30.1048 92.6101C30.6972 92.5564 31.2941 92.6488 31.8395 92.8785C33.028 93.3199 33.9804 94.1428 34.9096 94.9582C34.9161 94.9629 34.9241 94.9652 34.9322 94.9648C34.9403 94.9644 34.948 94.9613 34.954 94.9559C34.96 94.9506 34.9638 94.9434 34.9649 94.9357C34.966 94.9279 34.9642 94.92 34.9599 94.9133Z" fill="#263238"/>
<path d="M32.9542 93.4927C32.9542 93.4927 29.9461 92.4492 28.4633 94.5662C26.9806 96.6833 28.7537 102.077 42.4393 105.118C42.0388 100.979 40.9267 96.9339 39.1486 93.1486C36.214 86.9844 30.9837 89.3259 32.9542 93.4927Z" fill="#477FFF"/>
<path d="M41.6534 104.234C41.4468 103.864 41.2166 103.507 40.9643 103.164C40.7359 102.824 40.5036 102.484 40.2713 102.147L39.7371 101.399C39.7371 101.339 39.7371 101.276 39.7603 101.212L39.8068 100.868C39.8416 100.621 39.8803 100.37 39.9152 100.12C39.95 99.8691 39.9965 99.6297 40.0468 99.3716C40.0762 99.1068 40.136 98.8458 40.2249 98.5936C40.2249 98.5562 40.1707 98.5338 40.1629 98.5936C40.1343 98.7422 40.0942 98.8885 40.0429 99.0313L39.95 99.3642C39.8842 99.6148 39.8222 99.8654 39.7642 100.112C39.7061 100.359 39.6635 100.58 39.6209 100.815C39.6209 100.928 39.5861 101.04 39.5667 101.152C39.3228 100.815 39.075 100.483 38.8195 100.157C38.0917 99.2333 37.3251 98.343 36.5276 97.4753C36.5276 97.4753 36.5276 97.4753 36.5276 97.4491C36.6012 96.0614 36.5663 94.6849 36.8838 93.3346C36.8838 93.2972 36.8335 93.2748 36.8257 93.3122C36.4649 94.6005 36.2929 95.9313 36.3147 97.2658C36.0282 96.9591 35.7417 96.6524 35.4514 96.3494C34.7816 95.6574 34.1041 94.9767 33.4111 94.3071C33.384 94.281 33.3375 94.3071 33.3646 94.3483C34.5261 95.549 35.614 96.7983 36.6825 98.07C35.8495 98.0497 35.0159 98.0721 34.1854 98.1373C33.2601 98.2009 32.3348 98.3169 31.4134 98.4403C31.3747 98.4403 31.3863 98.5039 31.4134 98.5001C32.3296 98.3717 33.2524 98.2917 34.1776 98.2607C35.072 98.2233 35.9585 98.2607 36.8528 98.2607C37.431 98.949 38.0001 99.6447 38.5601 100.348H38.444C38.2349 100.348 38.0259 100.348 37.8168 100.348C37.3987 100.348 36.9845 100.385 36.5702 100.419C35.7198 100.489 34.8753 100.614 34.0421 100.793C34.0339 100.793 34.0261 100.796 34.0202 100.802C34.0144 100.807 34.0112 100.815 34.0112 100.823C34.0112 100.831 34.0144 100.838 34.0202 100.844C34.0261 100.85 34.0339 100.853 34.0421 100.853C34.8823 100.763 35.7262 100.685 36.5702 100.655C36.9574 100.655 37.3793 100.655 37.782 100.655H38.444C38.5597 100.67 38.6775 100.66 38.7886 100.625C39.1551 101.086 39.5216 101.549 39.8881 102.012C40.1784 102.386 40.4649 102.76 40.7475 103.134C41.0301 103.509 41.2934 103.939 41.6147 104.298C41.6263 104.298 41.6689 104.264 41.6534 104.234Z" fill="#263238"/>
<path d="M34.2629 96.4957C33.7777 96.4358 33.2884 96.4133 32.7995 96.4283C32.3117 96.4283 31.82 96.4283 31.3322 96.4583C31.2896 96.4583 31.2935 96.5181 31.3322 96.5181C31.8278 96.4807 32.3233 96.4732 32.8189 96.4807C33.3144 96.4882 33.779 96.5331 34.2552 96.5181C34.2745 96.5181 34.2784 96.4994 34.2629 96.4957Z" fill="#263238"/>
<path d="M38.5564 97.5619C38.6145 97.1093 38.6726 96.6567 38.7732 96.2116C38.7732 96.2036 38.7699 96.196 38.7641 96.1904C38.7583 96.1848 38.7505 96.1816 38.7422 96.1816C38.734 96.1816 38.7261 96.1848 38.7203 96.1904C38.7145 96.196 38.7113 96.2036 38.7113 96.2116C38.6416 96.6567 38.5525 97.098 38.4829 97.5432L38.3899 98.2089C38.3508 98.4175 38.3326 98.6292 38.3357 98.8411C38.3357 98.851 38.3398 98.8605 38.3471 98.8675C38.3543 98.8745 38.3642 98.8785 38.3745 98.8785C38.3847 98.8785 38.3946 98.8745 38.4018 98.8675C38.4091 98.8605 38.4132 98.851 38.4132 98.8411C38.457 98.6329 38.4816 98.4213 38.4867 98.2089C38.5061 97.992 38.5332 97.7638 38.5564 97.5619Z" fill="#263238"/>
<path d="M37.6699 92.5573C37.5499 92.9987 37.4299 93.4438 37.3485 93.8889C37.306 94.1171 37.2673 94.3452 37.2363 94.5734C37.1937 94.7941 37.1781 95.0188 37.1898 95.2429C37.1898 95.2429 37.2208 95.2616 37.2247 95.2429C37.2824 95.035 37.3187 94.822 37.3331 94.6071C37.364 94.3864 37.3989 94.1694 37.4376 93.9488C37.5228 93.4887 37.6079 93.0324 37.728 92.5798C37.7241 92.5274 37.6699 92.5274 37.6699 92.5573Z" fill="#263238"/>
<path d="M19.8341 119.377C19.7605 118.546 19.6754 117.712 19.5863 116.882C19.4031 115.236 19.1979 113.592 18.9708 111.948C18.7423 110.314 18.5217 108.672 18.2507 107.041C18.1502 106.285 17.9752 105.539 17.728 104.815C17.6396 104.504 17.4784 104.216 17.2569 103.974C17.0355 103.733 16.7596 103.543 16.4504 103.42C14.8399 102.885 13.7404 104.497 13.1055 105.638C13.1055 105.672 13.1365 105.698 13.1597 105.668C13.5468 105.126 14.6231 103.611 15.8465 103.682C16.6672 103.727 17.3254 104.292 17.7203 106.27C18.7036 111.204 19.5902 121.232 19.6909 121.872C19.7489 122.219 20.0006 122.204 20.0044 121.83C20.0083 121.011 19.9077 120.207 19.8341 119.377Z" fill="#263238"/>
<path d="M13.539 105.025C13.539 105.025 14.9443 100.222 11.8356 102.624C6.65554 106.622 6.46971 115.315 6.46971 115.315C6.46971 115.315 15.6799 110.149 16.822 106.742C18.5293 101.666 13.539 105.025 13.539 105.025Z" fill="#477FFF"/>
<path d="M15.281 107.381C14.5571 107.523 13.8254 107.617 13.0975 107.718L12.06 107.86C11.8277 107.89 11.5915 107.912 11.3554 107.938C12.0406 107.026 12.7336 106.117 13.3918 105.185C13.415 105.148 13.3608 105.114 13.3298 105.141C12.782 105.685 12.2651 106.259 11.7812 106.857C11.6496 106.483 11.5102 106.109 11.3747 105.735C11.2199 105.305 11.0495 104.879 10.9373 104.434C10.9351 104.428 10.9311 104.423 10.9259 104.419C10.9207 104.416 10.9145 104.414 10.9082 104.414C10.9019 104.414 10.8957 104.416 10.8905 104.419C10.8853 104.423 10.8814 104.428 10.8792 104.434C11.0031 104.875 11.0921 105.324 11.216 105.765C11.3399 106.207 11.4676 106.61 11.6031 107.026C11.2663 107.448 10.9411 107.882 10.6275 108.32C10.4688 107.886 10.2714 107.467 10.1359 107.026C10.1359 106.988 10.0623 107.007 10.0739 107.026C10.2404 107.516 10.3294 108.021 10.4843 108.522C10.2714 108.821 10.0623 109.12 9.86098 109.42C9.47384 109.977 9.13702 110.542 8.79246 111.11C8.76685 111.122 8.74569 111.142 8.73185 111.166C8.718 111.19 8.71213 111.217 8.71503 111.245C8.13044 112.217 7.57682 113.201 7.03094 114.2C7.03094 114.233 7.06966 114.26 7.08515 114.226C7.63489 113.242 8.24658 112.288 8.87376 111.346C8.97026 111.315 9.07043 111.296 9.17186 111.29L9.4932 111.222C9.72936 111.174 9.96552 111.114 10.2017 111.058C10.6701 110.946 11.1308 110.837 11.607 110.759C11.6457 110.759 11.607 110.695 11.607 110.702C11.0495 110.803 10.492 110.867 9.9268 110.927C9.65967 110.957 9.39641 110.991 9.13315 111.032H9.09443C9.42222 110.545 9.75775 110.063 10.101 109.584C10.434 109.117 10.7785 108.653 11.1231 108.193C11.4444 108.148 11.758 108.066 12.0755 108.009L13.144 107.807C13.8563 107.673 14.5687 107.516 15.2849 107.403C15.3391 107.433 15.3197 107.374 15.281 107.381Z" fill="#263238"/>
<path d="M9.74881 107.864C9.70622 107.737 9.66751 107.609 9.62492 107.49C9.53666 107.22 9.46428 106.945 9.40812 106.667C9.40812 106.629 9.3423 106.648 9.35004 106.686C9.40812 106.959 9.47393 107.228 9.53975 107.497C9.59664 107.77 9.67692 108.038 9.77978 108.298C9.7844 108.311 9.79434 108.322 9.8074 108.328C9.82047 108.335 9.8356 108.336 9.84946 108.331C9.86333 108.327 9.87478 108.317 9.88132 108.305C9.88785 108.292 9.88893 108.277 9.88431 108.264C9.84946 108.126 9.79526 107.991 9.74881 107.864Z" fill="#263238"/>
<path d="M16.222 106.27C15.8039 106.33 15.3819 106.359 14.956 106.397C14.5302 106.434 14.112 106.487 13.6901 106.55C13.6901 106.55 13.6668 106.588 13.6901 106.584C14.112 106.558 14.534 106.524 14.956 106.472C15.378 106.419 15.7961 106.359 16.222 106.33C16.2646 106.326 16.2607 106.266 16.222 106.27Z" fill="#263238"/>
<path d="M26.6129 113.297C26.4464 109.763 26.2258 106.232 25.8386 102.712C25.6567 100.958 25.4515 99.2072 25.1959 97.4754C24.9665 95.7599 24.616 94.0615 24.1468 92.3922C23.8278 91.0877 23.2348 89.8604 22.4046 88.7864C21.9945 88.2676 21.4546 87.858 20.8356 87.5963C20.2166 87.3346 19.5388 87.2293 18.8661 87.2903C17.2633 87.481 15.9741 88.4573 14.8591 89.5345C13.6087 90.724 12.4627 92.0219 11.3051 93.2749C11.0109 93.5929 10.7205 93.9183 10.4302 94.2437C10.407 94.2736 10.4302 94.3148 10.4766 94.2849C11.611 93.0281 12.7995 91.805 14.019 90.638C15.1572 89.557 16.3419 88.3937 17.8905 87.9299C18.6237 87.7045 19.4086 87.6876 20.1514 87.8813C20.7441 88.0591 21.2781 88.3842 21.7 88.8239C22.5866 89.7141 23.086 90.9222 23.4422 92.093C24.4255 95.3434 24.7778 98.7509 25.1417 102.106C25.5289 105.517 25.765 108.932 25.9431 112.359C26.1212 115.785 26.2606 119.245 26.6013 122.678C26.6439 123.101 26.7019 123.524 26.7561 123.946C26.7949 124.231 27.2517 124.231 27.2285 123.946C26.9458 120.4 26.7755 116.84 26.6129 113.297Z" fill="#263238"/>
<path d="M14.6577 89.9102C14.6577 89.9102 16.7483 86.1698 14.2706 84.9728C11.7929 83.7759 3.5389 92.6856 1.10762 105.717C1.10762 105.717 14.4564 100.013 18.9899 94.3276C23.5234 88.6422 18.4053 87.3966 14.6577 89.9102Z" fill="#477FFF"/>
<path d="M16.6207 92.9496C15.1224 92.9496 13.6242 92.8412 12.1259 92.8486L12.9699 91.9173C13.3856 91.5027 13.7736 91.063 14.1313 90.6007C14.1313 90.5707 14.1081 90.5296 14.0771 90.552C13.6695 90.8891 13.2902 91.2568 12.9428 91.6517C12.5556 92.0258 12.1917 92.4222 11.8201 92.8113C11.2471 93.4135 10.6857 94.0231 10.1244 94.6328C10.1244 94.573 10.1244 94.5131 10.1244 94.457C10.1244 94.2027 10.1244 93.9483 10.1244 93.7089C10.1244 93.219 10.1244 92.7252 10.1244 92.2352C10.1244 91.2403 10.1244 90.2378 10.2018 89.2429C10.2018 89.2055 10.1437 89.2055 10.1398 89.2429C10.0702 90.2453 9.96176 91.2403 9.91143 92.2352C9.8882 92.729 9.87271 93.219 9.86884 93.7127C9.86884 93.967 9.86884 94.2176 9.86884 94.4608C9.86884 94.5992 9.86884 94.745 9.86884 94.8872C9.78367 94.9844 9.69075 95.0779 9.60558 95.1714C8.40543 96.4956 7.2827 97.8608 6.15998 99.2522C6.15998 99.1774 6.15998 99.0951 6.15998 99.0203C6.15998 98.867 6.12514 98.7136 6.10965 98.5603C6.07094 98.2311 6.02061 97.8982 5.97028 97.5691C5.91995 97.2399 5.87349 96.9444 5.81929 96.6377C5.76509 96.331 5.6683 95.9345 5.6412 95.5829C5.6412 95.575 5.63794 95.5673 5.63213 95.5617C5.62632 95.5561 5.61844 95.553 5.61023 95.553C5.60202 95.553 5.59414 95.5561 5.58833 95.5617C5.58252 95.5673 5.57926 95.575 5.57926 95.5829C5.64304 95.9343 5.6857 96.289 5.70702 96.6452C5.73799 96.9631 5.76896 97.2848 5.79606 97.6027C5.82316 97.9206 5.858 98.2423 5.89285 98.5603C5.89285 98.7136 5.91995 98.867 5.93931 99.0203C5.93931 99.0951 5.93931 99.1737 5.96641 99.2485C5.97388 99.3136 5.99637 99.3762 6.03222 99.4318C5.84252 99.6712 5.64507 99.9105 5.46312 100.154C4.68882 101.119 3.96099 102.099 3.21766 103.075C3.19444 103.105 3.24089 103.146 3.26412 103.116C3.96873 102.23 4.69269 101.358 5.4244 100.498C5.97415 100.52 6.53551 100.479 7.08526 100.472C7.63501 100.464 8.2467 100.472 8.81968 100.472C8.82789 100.472 8.83577 100.468 8.84158 100.463C8.84738 100.457 8.85065 100.45 8.85065 100.442C8.85065 100.434 8.84738 100.426 8.84158 100.421C8.83577 100.415 8.82789 100.412 8.81968 100.412C8.23896 100.412 7.65824 100.43 7.08139 100.434C6.50454 100.438 6.01674 100.412 5.49022 100.434C6.13288 99.6861 6.78716 98.938 7.42595 98.1713L8.14217 97.3521C8.36417 97.3802 8.58845 97.3877 8.81193 97.3745H9.58623C10.0779 97.3745 10.5696 97.3745 11.0651 97.3558C12.0833 97.3558 13.1015 97.3072 14.1197 97.3072C14.1279 97.3072 14.1358 97.3041 14.1416 97.2985C14.1474 97.2928 14.1507 97.2852 14.1507 97.2773C14.1507 97.2694 14.1474 97.2617 14.1416 97.2561C14.1358 97.2505 14.1279 97.2474 14.1197 97.2474C13.0976 97.2474 12.0794 97.1913 11.0574 97.1651L9.57848 97.1314H8.80419C8.6532 97.1314 8.50221 97.1314 8.34736 97.1314L10.0314 95.2051C10.0446 95.1966 10.0552 95.185 10.0624 95.1714C10.6083 94.5468 11.1542 93.9259 11.7078 93.3012C11.7852 93.219 11.8626 93.1367 11.9362 93.0506C13.4848 93.0993 15.0334 92.9983 16.582 93.0282C16.6633 93.0095 16.6594 92.9496 16.6207 92.9496Z" fill="#263238"/>
<path d="M15.8543 95.5195H15.4904C15.4832 95.5195 15.4763 95.5223 15.4712 95.5272C15.4661 95.5321 15.4633 95.5388 15.4633 95.5457C15.4633 95.5527 15.4661 95.5593 15.4712 95.5642C15.4763 95.5691 15.4832 95.5719 15.4904 95.5719H15.8543C15.8591 95.5693 15.8632 95.5655 15.866 95.5609C15.8688 95.5563 15.8703 95.5511 15.8703 95.5457C15.8703 95.5404 15.8688 95.5351 15.866 95.5305C15.8632 95.5259 15.8591 95.5221 15.8543 95.5195Z" fill="#263238"/>
<path d="M15.0451 95.5191C14.565 95.5191 14.085 95.5191 13.6049 95.4892L12.8926 95.463C12.6701 95.4368 12.4452 95.4368 12.2228 95.463C12.2166 95.463 12.2107 95.4654 12.2064 95.4696C12.202 95.4738 12.1996 95.4795 12.1996 95.4855C12.1996 95.4914 12.202 95.4971 12.2064 95.5013C12.2107 95.5055 12.2166 95.5079 12.2228 95.5079C12.4431 95.5508 12.6682 95.5659 12.8926 95.5528H13.6127C14.0966 95.5528 14.5766 95.5528 15.0567 95.5528C15.0877 95.5752 15.0877 95.5191 15.0451 95.5191Z" fill="#263238"/>
<path d="M10.8521 99.8694C9.87572 99.7108 8.8882 99.6245 7.89819 99.6113V99.63C8.88155 99.7235 9.86103 99.7722 10.8366 99.9255C10.8754 99.933 10.8908 99.8732 10.8521 99.8694Z" fill="#263238"/>
<path d="M6.83738 95.7182C6.83738 95.6359 6.83737 95.5536 6.8064 95.4714C6.78317 95.2843 6.7522 95.0973 6.72123 94.914C6.66316 94.5587 6.60122 94.2071 6.53153 93.8518C6.53153 93.8218 6.46571 93.8293 6.46959 93.8518C6.51604 94.2258 6.55476 94.5811 6.59347 94.9477L6.63993 95.4863C6.62841 95.6616 6.64805 95.8374 6.698 96.0062C6.70572 96.0175 6.71659 96.0263 6.72933 96.0318C6.74207 96.0373 6.75615 96.0392 6.76995 96.0372C6.78375 96.0352 6.79668 96.0295 6.80725 96.0207C6.81782 96.0119 6.82558 96.0004 6.82963 95.9875C6.84959 95.899 6.85222 95.8077 6.83738 95.7182Z" fill="#263238"/>
<path d="M26.4812 85.1132C26.0011 84.253 25.3933 83.1196 24.2009 83.1907C23.2176 83.2505 22.7723 84.2193 22.5633 85.0235C21.9129 87.5034 21.8664 90.1217 21.7387 92.6651C21.4715 98.0401 21.2315 103.419 21.1967 108.801C21.1967 110.297 21.1967 111.794 21.1967 113.29C21.1967 114.812 21.1967 116.342 21.3051 117.861C21.3051 117.89 21.3173 117.919 21.3391 117.94C21.3609 117.961 21.3904 117.973 21.4212 117.973C21.452 117.973 21.4815 117.961 21.5033 117.94C21.5251 117.919 21.5373 117.89 21.5373 117.861C21.5373 116.559 21.4986 115.242 21.4909 113.956C21.4831 112.669 21.4909 111.416 21.518 110.144C21.5593 107.573 21.6303 105.002 21.7309 102.431C21.8316 99.8766 21.9477 97.3219 22.06 94.7672C22.1142 93.4918 22.1684 92.2125 22.2303 90.9371C22.2923 89.6616 22.3426 88.4647 22.4897 87.2341C22.571 86.5421 22.6756 85.8539 22.8265 85.1768C22.9008 84.672 23.1133 84.1955 23.4421 83.7966C23.6694 83.5796 23.9696 83.4483 24.2884 83.4263C24.6071 83.4044 24.9235 83.4933 25.1804 83.6769C25.7262 84.0569 26.1534 84.5744 26.4154 85.1731C26.4425 85.1768 26.4967 85.1469 26.4812 85.1132Z" fill="#263238"/>
<path d="M26.1562 84.7026C26.1562 84.7026 25.1767 81.3587 27.3447 83.0306C30.953 85.8135 31.0807 91.8692 31.0807 91.8692C31.0807 91.8692 24.6657 88.271 23.8682 85.8846C22.6796 82.3611 26.1562 84.7026 26.1562 84.7026Z" fill="#477FFF"/>
<path d="M29.7295 89.3898C29.6714 89.2963 29.6094 89.2065 29.5475 89.113C29.5552 89.0184 29.5552 88.9233 29.5475 88.8287V88.4135C29.5475 88.1292 29.5475 87.8487 29.5823 87.5645C29.5823 87.5565 29.5791 87.5489 29.5733 87.5433C29.5675 87.5377 29.5596 87.5345 29.5514 87.5345C29.5432 87.5345 29.5353 87.5377 29.5295 87.5433C29.5237 87.5489 29.5204 87.5565 29.5204 87.5645C29.5204 87.845 29.4933 88.1218 29.4856 88.3986C29.4856 88.537 29.4856 88.6754 29.4856 88.8137C29.4856 88.8661 29.4856 88.9297 29.4856 88.9933C29.2339 88.6192 28.9745 88.2452 28.7113 87.8712C28.6338 87.7627 28.5525 87.658 28.4712 87.5532C28.4403 87.1898 28.4403 86.8245 28.4712 86.461C28.4712 86.087 28.4712 85.683 28.4983 85.294C28.4983 85.2566 28.4364 85.2604 28.4364 85.294C28.4364 85.698 28.4015 86.1019 28.3822 86.5059C28.357 86.7932 28.3492 87.0817 28.359 87.3699C27.7395 86.5583 27.0814 85.7728 26.4232 84.991C26.4 84.9649 26.3535 84.9911 26.3768 85.0285C26.7871 85.5334 27.182 86.0496 27.5692 86.5732C26.7949 86.4012 26.0477 86.3039 25.2811 86.1992C25.2424 86.1992 25.2269 86.2478 25.2811 86.2553C26.0942 86.375 26.8917 86.5695 27.6892 86.7416C27.995 87.1605 28.297 87.5794 28.599 88.0021L28.9629 88.5183H28.9281L28.6803 88.4846L28.146 88.4397C27.7589 88.4098 27.4066 88.3911 27.0349 88.3724C26.9962 88.3724 26.9962 88.4322 27.0349 88.4322C27.3988 88.4322 27.7628 88.4659 28.1228 88.5033L28.6958 88.5706L28.9474 88.6005H29.021L29.6365 89.4758C30.0005 89.9957 30.3218 90.5493 30.7089 91.0468C30.7081 91.0411 30.7054 91.0358 30.7012 91.0318C30.411 90.4665 30.0866 89.9181 29.7295 89.3898Z" fill="#263238"/>
<path d="M28.1345 85.6109V85.2181C28.1267 84.9446 28.1383 84.6709 28.1693 84.399C28.1693 84.3578 28.1074 84.3503 28.1074 84.399C28.1074 84.672 28.0764 84.9413 28.0648 85.2106C28.0648 85.349 28.0648 85.4837 28.0648 85.6183V85.8054C28.0532 85.8697 28.0532 85.9355 28.0648 85.9999C28.0648 86.0068 28.0676 86.0135 28.0727 86.0184C28.0778 86.0233 28.0847 86.026 28.0919 86.026C28.0991 86.026 28.106 86.0233 28.1111 86.0184C28.1161 86.0135 28.119 86.0068 28.119 85.9999C28.1287 85.9404 28.1287 85.8798 28.119 85.8203L28.1345 85.6109Z" fill="#263238"/>
<path d="M27.3407 86.9953C27.1006 86.9542 26.8567 86.943 26.6167 86.9242C26.3767 86.9055 26.0863 86.8794 25.8424 86.8457C25.8342 86.8457 25.8263 86.8489 25.8205 86.8545C25.8147 86.8601 25.8114 86.8677 25.8114 86.8756C25.8114 86.8836 25.8147 86.8912 25.8205 86.8968C25.8263 86.9024 25.8342 86.9056 25.8424 86.9056C26.3457 86.9392 26.8529 87.0252 27.3561 87.0402C27.3623 87.0382 27.3674 87.034 27.3703 87.0283C27.3732 87.0227 27.3737 87.0162 27.3716 87.0103C27.3696 87.0043 27.3652 86.9994 27.3594 86.9966C27.3535 86.9938 27.3468 86.9933 27.3407 86.9953Z" fill="#263238"/>
<path d="M26.6286 102.96C25.2814 101.983 24.0696 100.577 22.2539 100.506C20.7556 100.45 19.7065 101.538 19.1064 102.75C18.8063 103.396 18.5616 104.064 18.3747 104.748C18.1037 105.66 17.8456 106.579 17.6004 107.504C17.1306 109.322 16.7306 111.155 16.4002 113.003C16.2183 114.031 16.0479 115.064 15.9124 116.1C15.7407 117.15 15.6359 118.209 15.5988 119.272C15.6014 119.31 15.6178 119.346 15.6453 119.374C15.6728 119.402 15.7095 119.42 15.7492 119.425C15.7888 119.429 15.8288 119.42 15.8621 119.399C15.8955 119.378 15.9202 119.346 15.9318 119.309C16.1176 118.441 16.1912 117.547 16.3189 116.672C16.4467 115.797 16.5899 114.91 16.7409 114.035C17.0506 112.29 17.4094 110.544 17.8172 108.798C18.2043 107.156 18.5915 105.492 19.1296 103.895C19.5168 102.75 20.1517 101.415 21.4331 101.003C23.3689 100.379 25.1459 101.972 26.5706 103.005C26.617 103.027 26.6596 103.001 26.6286 102.96Z" fill="#263238"/>
<path d="M25.2308 102.025C25.2308 102.025 23.988 98.5951 25.7883 97.9106C28.4983 96.9045 35.5366 104.58 34.1545 116.34C34.1545 116.34 28.7073 113.441 24.681 110.175C20.6547 106.91 19.6481 102.65 21.398 101.55C23.1479 100.45 25.2308 102.025 25.2308 102.025Z" fill="#477FFF"/>
<path d="M33.3416 113.848C33.1544 113.438 32.9357 113.041 32.6874 112.662C32.4551 112.258 32.2228 111.858 31.9828 111.462C31.5143 110.687 31.0497 109.913 30.5697 109.143L30.3335 108.769C30.3335 108.724 30.3335 108.675 30.3606 108.63L30.4419 108.29C30.5039 108.035 30.5464 107.777 30.5968 107.523C30.6936 107.018 30.7865 106.509 30.9258 106.027C30.9258 105.989 30.8755 105.978 30.8639 106.027C30.7555 106.528 30.589 107.026 30.4342 107.523C30.3606 107.766 30.2793 108.009 30.2135 108.252L30.1438 108.503C29.567 107.587 28.9824 106.674 28.3397 105.791C28.3812 105.671 28.4034 105.544 28.4055 105.417C28.4055 105.245 28.4442 105.073 28.4636 104.901C28.5139 104.527 28.5604 104.127 28.6185 103.741C28.7346 102.993 28.8507 102.245 29.0443 101.497C29.0443 101.46 28.994 101.449 28.9824 101.497C28.7888 102.245 28.5952 102.993 28.4326 103.741C28.3629 104.116 28.2932 104.49 28.2429 104.864C28.2158 105.051 28.1965 105.238 28.1771 105.425C28.1771 105.477 28.1771 105.537 28.1539 105.593C27.9603 105.327 27.7667 105.058 27.5577 104.8C26.9382 104.007 26.2917 103.237 25.6413 102.466C25.6142 102.436 25.5639 102.466 25.591 102.5C26.703 103.851 27.727 105.267 28.6572 106.741C28.8353 107.018 29.0095 107.299 29.1837 107.575L29.0095 107.553C28.781 107.523 28.5526 107.512 28.3242 107.489L26.946 107.373C26.0284 107.306 25.107 107.25 24.1934 107.156C24.1508 107.156 24.143 107.209 24.1934 107.213C25.1225 107.317 26.0439 107.459 26.9692 107.587C27.4222 107.65 27.879 107.71 28.3358 107.766C28.6815 107.832 29.0327 107.867 29.385 107.871L30.469 109.565C30.3877 109.565 30.3025 109.565 30.2251 109.565H28.9127C28.3203 109.565 27.728 109.565 27.1396 109.565C27.097 109.565 27.1047 109.621 27.1396 109.625C27.7396 109.625 28.3358 109.659 28.9359 109.689C29.2185 109.689 29.5011 109.719 29.7876 109.741L30.2096 109.767C30.337 109.795 30.4694 109.795 30.5968 109.767L31.5182 111.211C31.8008 111.656 32.0834 112.098 32.3776 112.539C32.6499 113.008 32.9592 113.455 33.3029 113.878C33.3068 113.885 33.3571 113.867 33.3416 113.848Z" fill="#263238"/>
<path d="M30.7435 104.325C30.6893 104.704 30.6078 105.079 30.4996 105.447C30.399 105.821 30.2867 106.195 30.159 106.569C30.1553 106.574 30.1528 106.579 30.1518 106.585C30.1507 106.591 30.1511 106.597 30.153 106.602C30.1548 106.608 30.158 106.613 30.1623 106.618C30.1666 106.622 30.1719 106.625 30.1777 106.627C30.1835 106.629 30.1897 106.629 30.1958 106.628C30.2018 106.627 30.2076 106.625 30.2126 106.622C30.2175 106.618 30.2216 106.614 30.2244 106.608C30.2272 106.603 30.2286 106.597 30.2286 106.591C30.3525 106.22 30.4609 105.846 30.5538 105.469C30.6506 105.095 30.7087 104.721 30.8055 104.347C30.8132 104.298 30.7474 104.284 30.7435 104.325Z" fill="#263238"/>
<path d="M26.7407 106.622C26.657 106.554 26.5519 106.516 26.4426 106.514L25.9277 106.446C25.6103 106.405 25.2889 106.372 24.9715 106.334C24.3056 106.259 23.6397 106.196 22.9777 106.117C22.939 106.117 22.9273 106.17 22.9777 106.173C23.6048 106.248 24.2282 106.342 24.8553 106.42L25.7729 106.536L26.2181 106.581C26.3896 106.583 26.5597 106.612 26.7214 106.667C26.7407 106.682 26.7601 106.641 26.7407 106.622Z" fill="#263238"/>
<path d="M30.736 111.795C30.4224 111.769 30.1049 111.757 29.7913 111.75H29.3151H29.0867C28.9876 111.759 28.8878 111.759 28.7886 111.75C28.746 111.75 28.7422 111.814 28.7886 111.806C28.8813 111.797 28.9747 111.797 29.0674 111.806H29.3113L29.7875 111.836C30.1011 111.855 30.4185 111.873 30.7321 111.873C30.7708 111.858 30.7747 111.795 30.736 111.795Z" fill="#263238"/>
<path d="M32.6564 110.483L32.7609 109.967C32.8228 109.626 32.8887 109.286 32.9506 108.949C32.9484 108.943 32.9444 108.939 32.9392 108.935C32.9341 108.932 32.9279 108.93 32.9216 108.93C32.9152 108.93 32.9091 108.932 32.9039 108.935C32.8987 108.939 32.8947 108.943 32.8925 108.949L32.6602 109.94C32.6215 110.105 32.5828 110.27 32.548 110.434C32.548 110.513 32.5131 110.587 32.4976 110.666C32.4731 110.745 32.464 110.827 32.4705 110.909C32.4737 110.916 32.4787 110.921 32.4848 110.925C32.491 110.928 32.4981 110.93 32.5054 110.93C32.5127 110.93 32.5198 110.928 32.5259 110.925C32.5321 110.921 32.5371 110.916 32.5402 110.909C32.6038 110.774 32.643 110.63 32.6564 110.483Z" fill="#263238"/>
<path d="M14.2046 117.963L14.584 122.13L15.8732 136.205H27.2824L28.893 122.13L29.3691 117.963H14.2046Z" fill="#5F7A88"/>
<path d="M14.2046 117.963L14.584 122.13H28.893L29.3691 117.963H14.2046Z" fill="#263238"/>
<path d="M13.0743 120.207H30.4998V116.826H13.0743V120.207Z" fill="#5F7A88"/>
<path d="M134.843 127.56C134.391 126.269 110.476 96.1178 108.85 95.5455C108.665 95.467 98.1033 102.824 98.1033 102.824C97.6697 103.389 77.4839 99.3907 77.4839 99.3907L77.4297 122.888L114.15 121.923C114.15 121.923 119.129 124.71 123.682 126.98C126.481 128.386 128.963 129.572 129.667 129.744C131.533 130.189 135.316 128.846 134.843 127.56Z" fill="#EEE2DF"/>
<path d="M83.237 94.0019C83.237 94.0019 51.4601 87.9499 37.7435 89.0496C21.4098 90.3587 10.1051 104.497 31.1233 116.643C49.7063 127.363 105.103 122.163 105.103 122.163L91.4523 101.995C91.4523 101.995 74.8979 96.2162 54.6734 96.9942L83.2448 100.589L83.237 94.0019Z" fill="#5F7A88"/>
<path d="M81.8702 93.6501C81.8702 93.6501 112.164 87.7627 128.866 88.4135C145.227 89.0718 153.512 102.822 138.502 114.596C120.867 128.436 58.142 124.348 58.142 124.348L67.9716 105.013C67.9716 105.013 90.5307 96.5826 110.732 95.266L82.7219 101.785L81.8702 93.6501Z" fill="#5F7A88"/>
<path d="M26.3689 129.864C26.8141 128.57 50.6313 98.344 52.2535 97.7642C52.4393 97.6894 63.0239 105.009 63.0239 105.009L83.353 100.184V124.774C72.3774 125.705 48.7343 124.16 48.7343 124.16C48.7343 124.16 42.0754 126.966 37.5342 129.247C34.7351 130.665 32.2612 131.866 31.5566 132.03C29.6983 132.479 25.912 131.151 26.3689 129.864Z" fill="#EEE2DF"/>
<path d="M48.3435 124.695C49.2536 122.804 50.2668 120.961 51.3788 119.174C52.4783 117.379 53.6668 115.636 54.9057 113.938C56.1445 112.239 57.4879 110.571 58.8894 109C60.2918 107.409 61.8024 105.909 63.4113 104.512C62.7415 105.331 62.0098 106.09 61.3594 106.921C60.709 107.751 60.0199 108.54 59.3579 109.359C58.6958 110.178 58.0532 111.001 57.4221 111.839L56.4697 113.092L55.5367 114.36C54.294 116.047 53.0861 117.76 51.8859 119.485C50.6858 121.209 49.5088 122.926 48.3435 124.695Z" fill="#477FFF"/>
<path d="M63.1283 104.87C65.8151 103.808 87.3792 97.7632 112.629 94.8457C112.739 94.7913 112.853 94.7439 112.97 94.7035C113.233 94.5913 113.496 94.4791 113.767 94.3856C114.27 94.2135 114.781 94.0677 115.289 93.918C116.349 93.6038 117.418 93.3532 118.467 92.9942C118.529 92.9755 118.568 93.0952 118.506 93.1213C117.453 93.5253 116.435 94.0228 115.381 94.4267L114.472 94.7671C116.582 94.6998 118.692 94.6961 120.809 94.7297C120.875 94.7297 120.891 94.8531 120.809 94.8606C97.8708 96.5288 66.4346 104.249 63.3219 105.162C62.9889 105.244 62.7257 105.023 63.1283 104.87Z" fill="#263238"/>
<path d="M34.9831 118.455C35.8309 117.03 36.8259 115.695 37.7937 114.341C38.7616 112.987 39.7837 111.678 40.798 110.365C42.8421 107.749 44.9379 105.169 47.0853 102.626C48.1693 101.361 49.261 100.101 50.4109 98.8853C50.7012 98.5786 50.9954 98.2794 51.3129 97.9839C51.4785 97.8272 51.6543 97.681 51.8394 97.5463C51.9102 97.4974 51.9869 97.4572 52.0678 97.4266C52.1093 97.4133 52.1521 97.4045 52.1956 97.4004H52.2963H52.3427C52.3887 97.4084 52.434 97.4196 52.4782 97.4341C52.5936 97.4786 52.706 97.5298 52.815 97.5874C53.5893 98.0101 54.2823 98.4739 54.9908 98.9414C57.7744 100.834 60.4805 102.813 63.148 104.844L62.9776 104.81L64.9521 104.47C65.6102 104.355 66.2684 104.247 66.9265 104.144C66.2877 104.331 65.6451 104.518 64.9908 104.679L63.0551 105.195L62.9699 105.218L62.8886 105.158C60.1127 103.288 57.3601 101.358 54.5572 99.5287C53.8603 99.0798 53.1518 98.6085 52.4434 98.2345C52.3675 98.1939 52.2886 98.1589 52.2072 98.1298H52.273H52.3272C52.3272 98.1298 52.304 98.1298 52.2769 98.1634C52.1233 98.2779 51.9784 98.4029 51.8433 98.5375C51.5491 98.8143 51.2626 99.1098 50.98 99.409C49.8417 100.606 48.7461 101.855 47.6582 103.108C45.4825 105.617 43.3351 108.15 41.2161 110.709L38.057 114.528C36.9962 115.818 35.9471 117.105 34.9831 118.455Z" fill="#263238"/>
<path d="M129.005 119.283C127.921 119.717 126.806 120.084 125.688 120.432C124.569 120.779 123.438 121.082 122.3 121.367C121.162 121.651 120.016 121.898 118.858 122.115C117.701 122.332 116.535 122.489 115.374 122.605C115.943 122.466 116.535 122.362 117.089 122.231C117.643 122.1 118.231 121.98 118.8 121.857C119.938 121.587 121.077 121.325 122.207 121.041L125.61 120.192L129.005 119.283Z" fill="#263238"/>
<path d="M76.9923 98.325C74.3907 97.951 71.7775 97.6031 69.1642 97.2889C63.9497 96.6532 58.7046 96.2787 53.45 96.1668C52.9583 96.1668 52.4666 96.1668 51.9749 96.1668C51.8704 96.1294 51.762 96.107 51.6536 96.077C51.4058 96.006 51.158 95.9349 50.9025 95.8788C50.4341 95.7703 49.9579 95.6843 49.4856 95.5945C48.4984 95.4112 47.5073 95.2691 46.5239 95.0522C46.5178 95.0507 46.5115 95.0504 46.5052 95.0513C46.499 95.0522 46.493 95.0543 46.4877 95.0574C46.4823 95.0605 46.4776 95.0646 46.4738 95.0695C46.4701 95.0744 46.4674 95.0799 46.4658 95.0858C46.4643 95.0917 46.464 95.0979 46.4649 95.1039C46.4658 95.1099 46.468 95.1156 46.4712 95.1209C46.4745 95.1261 46.4787 95.1306 46.4838 95.1342C46.4888 95.1378 46.4946 95.1405 46.5007 95.1419C47.484 95.3963 48.4364 95.718 49.4352 95.9686L50.287 96.178C48.3512 96.208 46.4155 96.2865 44.5069 96.3912C44.4449 96.3912 44.4411 96.4885 44.5069 96.4847C47.124 96.4286 49.7604 96.5034 52.3737 96.6418C54.9869 96.7802 57.5692 96.9261 60.1592 97.1692C65.3973 97.6555 70.6122 98.3101 75.8348 99.0394C78.7577 99.4471 81.6845 99.9147 84.6269 100.143C84.9133 100.165 85.014 99.709 84.7159 99.6454" fill="#263238"/>
<path d="M83.6319 54.2407C83.6319 59.5559 93.5699 80.0496 98.6377 84.164C100.372 85.5742 109.741 91.974 116.752 93.8292C119.919 94.6634 127.658 81.0109 124.925 80.0346C121.1 78.6694 107.98 72.9914 107.554 72.5949C104.549 69.7784 98.3938 60.9997 90.5463 52.7483C86.0399 48.0167 83.6319 50.1413 83.6319 54.2407Z" fill="#EEE2DF"/>
<path d="M115.839 93.2481C119.757 97.3625 125.475 100.755 127.84 101.193C130.206 101.63 138.913 99.7975 140.79 98.9933C142.668 98.1891 145.339 90.7644 145.877 89.0738C146.307 87.716 145.517 86.16 143.02 87.8245C139.819 89.9528 138.851 93.6483 137.79 94.0111C136.729 94.3739 132.858 93.1994 132.331 91.6696C132.025 90.7719 132.865 88.7633 134.546 88.2172C136.226 87.6711 137.972 88.6324 140.353 88.4865C142.734 88.3407 144.999 86.0665 144.526 85.3184C144.054 84.5703 142.997 84.993 139.745 83.9756C137.651 83.3248 135.184 81.1441 131.154 80.4072C129.129 80.0332 124.96 80.0332 124.96 80.0332L115.839 93.2481Z" fill="#EEE2DF"/>
<path d="M126.69 96.5791C128.893 98.2922 133.961 101.023 138.084 101.184C140.867 101.288 148.394 100.166 148.293 98.1276C148.154 95.2139 138.448 95.7113 137.302 95.442C133.775 94.6117 130.504 91.2715 130.504 91.2715L126.69 96.5791Z" fill="#EEE2DF"/>
<path d="M133.702 93.8223C134.089 93.9943 134.433 94.1963 134.805 94.3497C135.177 94.503 135.541 94.6863 135.92 94.8284C136.298 94.9792 136.686 95.1041 137.082 95.2025C137.472 95.29 137.87 95.345 138.27 95.3671L140.717 95.5391C141.539 95.5855 142.358 95.6729 143.171 95.8009H140.705C139.884 95.8009 139.061 95.7735 138.235 95.7187C137.814 95.6951 137.397 95.6312 136.989 95.5279C136.589 95.4157 136.201 95.2705 135.827 95.094C135.44 94.9145 135.092 94.72 134.739 94.5068C134.387 94.2936 134.023 94.0691 133.702 93.8223Z" fill="#263238"/>
<path d="M125.908 96.7347C127.747 98.7396 132.188 102.181 136.144 102.985C138.823 103.527 146.288 103.628 146.539 101.642C146.892 98.7994 137.422 97.7521 136.361 97.3107C133.09 95.9492 130.492 92.2051 130.492 92.2051L125.908 96.7347Z" fill="#EEE2DF"/>
<path d="M133.036 94.9824C133.477 95.3565 133.938 95.7305 134.406 96.0784C134.865 96.4256 135.36 96.724 135.885 96.9686C136.148 97.0756 136.422 97.1559 136.702 97.208L137.554 97.3912C138.13 97.5222 138.715 97.6568 139.284 97.7989C140.446 98.0757 141.588 98.36 142.73 98.6854C143.316 98.8328 143.89 99.0254 144.445 99.2615C144.996 99.4987 145.483 99.8574 145.866 100.309C145.443 99.9095 144.936 99.6032 144.379 99.4111C143.823 99.222 143.256 99.0671 142.679 98.9473L139.195 98.1618L137.48 97.7653L136.613 97.5596C136.311 97.495 136.017 97.3971 135.738 97.2678C134.693 96.6812 133.776 95.9052 133.036 94.9824Z" fill="#263238"/>
<path d="M122.579 98.6997C125.815 100.742 131.038 103.274 132.73 103.708C134.422 104.142 141.034 104.969 142.339 103.502C143.98 101.658 138.885 100.334 136.783 99.732C134.604 99.1111 132.575 96.9043 132.575 96.9043L122.579 98.6997Z" fill="#EEE2DF"/>
<path d="M142.528 103.241C142.627 103.026 142.668 102.79 142.648 102.556C142.62 102.326 142.515 102.111 142.35 101.943C142.005 101.614 141.592 101.359 141.139 101.195C140.241 100.826 139.311 100.538 138.359 100.334C137.38 100.165 136.429 99.8684 135.533 99.4516C134.667 98.9696 133.884 98.3615 133.21 97.6487C131.866 96.2385 130.794 94.6376 129.431 93.3061C128.728 92.6603 127.948 92.0966 127.108 91.6266C126.271 91.1371 125.382 90.7358 124.456 90.4297C125.407 90.6785 126.323 91.0364 127.186 91.4957C127.621 91.7212 128.043 91.971 128.448 92.2438C128.859 92.5074 129.247 92.8026 129.609 93.1265C130.327 93.7803 130.99 94.4882 131.592 95.2436C132.211 95.9917 132.819 96.7397 133.485 97.3981C134.121 98.0963 134.867 98.6933 135.695 99.1673C136.566 99.574 137.483 99.8791 138.429 100.076C139.384 100.314 140.315 100.639 141.208 101.045C141.668 101.236 142.081 101.519 142.42 101.875C142.586 102.062 142.684 102.296 142.699 102.541C142.705 102.785 142.646 103.025 142.528 103.241Z" fill="#263238"/>
<path d="M83.6357 54.2408C83.6357 59.5559 93.5699 80.0496 98.6376 84.1641C100.872 85.844 103.212 87.388 105.645 88.7872L85.0178 50.377C84.1041 51.0091 83.6357 52.4267 83.6357 54.2408Z" fill="#263238"/>
<path d="M105.645 88.7871C107.337 89.7447 109.079 90.6274 110.856 91.4054C111.746 91.8056 112.641 92.1909 113.547 92.55C114.453 92.909 115.374 93.2345 116.295 93.5449H116.326L116.357 93.5711C118.11 95.261 120.022 96.7899 122.068 98.1381C124.107 99.4785 126.246 100.671 128.467 101.706C129.59 102.226 130.647 102.873 131.781 103.274C132.95 103.632 134.156 103.863 135.378 103.962C136.598 104.104 137.827 104.156 139.056 104.119C139.667 104.096 140.276 104.023 140.875 103.902C141.466 103.804 142.017 103.552 142.47 103.173L142.505 103.139H142.548C143.095 103.135 143.641 103.091 144.182 103.008C144.72 102.938 145.244 102.782 145.73 102.548C145.968 102.431 146.174 102.26 146.33 102.051C146.477 101.835 146.537 101.576 146.501 101.321C146.381 100.804 146.054 100.353 145.591 100.068L145.56 100.042H145.599L146.063 99.941L146.292 99.8812C146.369 99.8671 146.442 99.835 146.504 99.7877C146.445 99.838 146.373 99.8727 146.295 99.8886L146.067 99.9597L145.606 100.076V100.046C145.85 100.183 146.062 100.366 146.231 100.585C146.399 100.803 146.52 101.053 146.586 101.317C146.633 101.595 146.576 101.879 146.423 102.118C146.261 102.347 146.047 102.536 145.796 102.672C145.298 102.926 144.761 103.1 144.205 103.188C143.656 103.289 143.099 103.345 142.54 103.356L142.621 103.322C142.144 103.742 141.556 104.026 140.922 104.141C140.311 104.276 139.689 104.361 139.063 104.396C137.818 104.461 136.57 104.424 135.331 104.287C134.083 104.194 132.849 103.965 131.653 103.603C130.457 103.188 129.408 102.544 128.293 102.039C126.049 101.006 123.896 99.7972 121.855 98.4261C119.8 97.0693 117.89 95.5168 116.156 93.7918L116.214 93.8292C115.289 93.5038 114.367 93.1634 113.469 92.7819C112.571 92.4003 111.669 92.0113 110.79 91.5849C109.024 90.7425 107.307 89.8085 105.645 88.7871Z" fill="#263238"/>
<path d="M139.842 91.1815C139.609 91.6603 139.35 92.1279 139.067 92.5917C138.932 92.8236 138.789 93.048 138.638 93.2724C138.49 93.504 138.318 93.7197 138.123 93.9158C138.008 94.0209 137.864 94.0922 137.708 94.1215C137.568 94.1498 137.426 94.1673 137.283 94.1739C137.002 94.181 136.721 94.1672 136.443 94.1327C135.888 94.07 135.344 93.9444 134.82 93.7587C134.551 93.6577 134.291 93.5325 134.046 93.3847L133.353 92.9582C133.115 92.8141 132.89 92.6515 132.679 92.472C132.455 92.2874 132.285 92.0486 132.188 91.78C132.11 91.5078 132.103 91.2212 132.168 90.9459C132.224 90.6812 132.308 90.423 132.42 90.1754C132.627 89.6774 132.957 89.2357 133.38 88.8887C133.003 89.2691 132.72 89.7269 132.552 90.2277C132.331 90.6966 132.278 91.2228 132.401 91.7239C132.645 92.1713 133.028 92.5335 133.496 92.76L134.193 93.1714C134.42 93.3037 134.658 93.4164 134.906 93.5081C135.403 93.6996 135.923 93.8327 136.454 93.9046C136.717 93.9425 136.982 93.96 137.248 93.9569C137.496 93.9739 137.743 93.9136 137.952 93.7849C138.32 93.4059 138.646 92.991 138.924 92.5468C139.269 92.083 139.551 91.6304 139.842 91.1815Z" fill="#263238"/>
<path d="M145.091 96.078L144.112 95.992C143.79 95.9583 143.465 95.9246 143.14 95.8835L143.008 95.8648L143.066 95.7526C143.306 95.2813 143.562 94.8175 143.841 94.3574C143.768 94.6119 143.679 94.8618 143.574 95.1055C143.477 95.3524 143.365 95.5917 143.248 95.8311L143.175 95.7002C143.5 95.7339 143.825 95.7788 144.147 95.8386C144.467 95.8964 144.783 95.9764 145.091 96.078Z" fill="#263238"/>
<path d="M81.1618 54.2407C81.1618 59.5559 71.2238 80.0496 66.156 84.164C64.4216 85.5742 55.0565 91.974 48.0414 93.8292C44.8746 94.6634 37.1394 81.0109 39.8688 80.0346C43.6938 78.6694 56.818 72.9914 57.24 72.5949C60.2443 69.7784 66.3999 60.9997 74.2474 52.7483C78.7537 48.0167 81.1657 50.1413 81.1618 54.2407Z" fill="#EEE2DF"/>
<path d="M48.9554 93.2481C45.0414 97.3625 39.3232 100.755 36.9539 101.193C34.5845 101.63 25.8854 99.7975 24.0038 98.9933C22.1223 98.1891 19.4742 90.7719 18.9322 89.0738C18.5025 87.716 19.2923 86.16 21.7893 87.8245C24.991 89.9528 25.9589 93.6483 27.0236 94.0111C28.0882 94.3739 31.9558 93.1994 32.4785 91.6696C32.7882 90.7719 31.9442 88.7633 30.264 88.2172C28.5838 87.6711 26.8416 88.6324 24.4568 88.4865C22.072 88.3407 19.811 86.0665 20.2833 85.3184C20.7557 84.5703 21.8087 84.993 25.0646 83.9756C27.1552 83.3248 29.6252 81.1441 33.6515 80.4072C35.6763 80.0332 39.8459 80.0332 39.8459 80.0332L48.9554 93.2481Z" fill="#EEE2DF"/>
<path d="M38.1035 96.5791C35.9006 98.2922 30.8368 101.023 26.7136 101.184C23.9262 101.288 16.4001 100.166 16.5007 98.1276C16.6401 95.2139 26.3459 95.7113 27.4957 95.442C31.0187 94.6117 34.2901 91.2715 34.2901 91.2715L38.1035 96.5791Z" fill="#EEE2DF"/>
<path d="M31.0884 93.8223C30.7632 94.0691 30.4225 94.2936 30.078 94.5142C29.7334 94.7349 29.3656 94.922 28.9901 95.1015C28.6168 95.2786 28.2281 95.4238 27.8286 95.5354C27.4207 95.6387 27.0031 95.7026 26.582 95.7261C25.7587 95.786 24.9354 95.8134 24.112 95.8084H21.6459C22.4589 95.6804 23.2781 95.593 24.1004 95.5466L26.5511 95.3745C26.9501 95.3528 27.3465 95.2977 27.7357 95.21C28.1314 95.1116 28.5195 94.9866 28.8972 94.8359C29.2843 94.6938 29.6482 94.533 30.0121 94.3572C30.3761 94.1814 30.7245 93.9943 31.0884 93.8223Z" fill="#263238"/>
<path d="M38.8895 96.7347C37.0467 98.7396 32.61 102.181 28.6495 102.985C25.9704 103.527 18.5063 103.628 18.2585 101.642C17.9023 98.7994 27.3719 97.7521 28.4366 97.3107C31.7041 95.9492 34.3057 92.2051 34.3057 92.2051L38.8895 96.7347Z" fill="#EEE2DF"/>
<path d="M31.7621 94.9824C31.02 95.9052 30.0997 96.68 29.0521 97.2641C28.7729 97.3933 28.4794 97.4912 28.1771 97.5558L27.3138 97.7615L25.5833 98.1692L22.0989 98.9547C21.5227 99.0741 20.955 99.229 20.3994 99.4186C19.8417 99.609 19.3342 99.9154 18.9127 100.316C19.2939 99.8634 19.7808 99.5045 20.3335 99.2689C20.8822 99.0362 21.4493 98.8461 22.0292 98.7004C23.1713 98.375 24.3212 98.0907 25.4749 97.8139C26.0517 97.6718 26.6363 97.5371 27.2093 97.4062L28.0765 97.208C28.3565 97.1553 28.6302 97.0751 28.8934 96.9686C29.418 96.724 29.9138 96.4256 30.3723 96.0784C30.8497 95.7342 31.313 95.3689 31.7621 94.9824Z" fill="#263238"/>
<path d="M42.2148 98.6997C38.9822 100.742 33.7557 103.274 32.0639 103.708C30.372 104.142 23.7596 104.969 22.4549 103.502C20.8134 101.658 25.9082 100.334 28.0143 99.732C30.1901 99.1111 32.2187 96.9043 32.2187 96.9043L42.2148 98.6997Z" fill="#EEE2DF"/>
<path d="M22.2653 103.241C22.1492 103.028 22.0894 102.79 22.0911 102.549C22.1082 102.304 22.2058 102.071 22.3698 101.883C22.7094 101.528 23.1222 101.245 23.5816 101.053C24.4763 100.647 25.4082 100.323 26.3652 100.084C27.3023 99.8849 28.2119 99.5798 29.0752 99.1751C29.9041 98.7003 30.6513 98.1034 31.2897 97.4059C31.9556 96.7289 32.5634 95.9883 33.1789 95.2514C33.7816 94.4969 34.4443 93.7891 35.1611 93.1343C35.5231 92.8104 35.9115 92.5152 36.3226 92.2516C36.7292 91.9788 37.1519 91.729 37.5885 91.5035C38.4445 91.0447 39.3543 90.6868 40.2986 90.4375C39.3738 90.743 38.4859 91.1443 37.6505 91.6344C36.811 92.1047 36.0313 92.6683 35.3276 93.3139C33.9648 94.6455 32.8963 96.2464 31.5491 97.6565C30.8762 98.3702 30.0925 98.9784 29.2262 99.4594C28.33 99.8762 27.3792 100.173 26.4 100.342C25.4492 100.545 24.52 100.833 23.6242 101.202C23.1687 101.366 22.7544 101.621 22.4085 101.95C22.2446 102.119 22.1414 102.334 22.1143 102.564C22.1056 102.798 22.1575 103.031 22.2653 103.241Z" fill="#263238"/>
<path d="M81.1579 54.2411C81.1579 59.5562 71.2238 80.05 66.1599 84.1644C63.9249 85.8434 61.5846 87.3874 59.1525 88.7875L79.7758 50.3848C80.6934 51.0094 81.1579 52.427 81.1579 54.2411Z" fill="#263238"/>
<path d="M59.1524 88.7871C57.4926 89.8061 55.7777 90.7388 54.015 91.5812C53.1362 92.0076 52.2419 92.4041 51.3398 92.7781C50.4378 93.1522 49.5163 93.5 48.5911 93.8254L48.653 93.788C46.9164 95.5122 45.006 97.0647 42.9503 98.4224C40.9082 99.7919 38.7537 100.998 36.5082 102.028C35.3971 102.533 34.3441 103.176 33.1478 103.592C31.9526 103.953 30.7187 104.183 29.4699 104.276C28.2312 104.413 26.9828 104.45 25.7378 104.385C25.1121 104.35 24.4905 104.265 23.8795 104.13C23.2474 104.012 22.6608 103.729 22.1838 103.311L22.2651 103.345C21.7063 103.334 21.1494 103.277 20.6004 103.176C20.0457 103.089 19.5096 102.915 19.0131 102.66C18.7605 102.526 18.5443 102.337 18.382 102.107C18.2334 101.866 18.1759 101.583 18.2194 101.306C18.2861 101.042 18.4072 100.793 18.5754 100.574C18.7437 100.356 18.9557 100.172 19.1989 100.035V100.064L18.7382 99.9485L18.5098 99.8774C18.4323 99.8615 18.3604 99.8268 18.3007 99.7764C18.3633 99.8231 18.4361 99.8551 18.5137 99.8699L18.7421 99.9298L19.2066 100.031H19.2492L19.2144 100.057C18.7528 100.345 18.4284 100.798 18.3123 101.317C18.2775 101.572 18.3379 101.831 18.4827 102.047C18.641 102.256 18.8478 102.426 19.0866 102.544C19.574 102.776 20.0969 102.93 20.6352 103.001C21.1757 103.083 21.7218 103.127 22.269 103.132H22.3116L22.3464 103.165C22.8008 103.544 23.3536 103.796 23.9453 103.895C24.5432 104.016 25.1506 104.088 25.761 104.112C26.9906 104.149 28.2214 104.096 29.4428 103.954C30.6633 103.856 31.8684 103.625 33.0355 103.266C34.1737 102.866 35.2268 102.219 36.3534 101.699C38.5732 100.666 40.7109 99.4757 42.749 98.1381C44.7854 96.7953 46.6903 95.2754 48.4401 93.5973L48.4672 93.5711H48.4981C49.4234 93.2606 50.3448 92.939 51.2469 92.5761C52.1489 92.2133 53.051 91.8281 53.9569 91.4316C55.7223 90.6237 57.4541 89.7422 59.1524 88.7871Z" fill="#263238"/>
<path d="M24.9518 91.1804C25.2422 91.6292 25.5248 92.0818 25.8306 92.5194C26.1104 92.9638 26.4374 93.3787 26.8063 93.7575C27.0142 93.8872 27.2602 93.9476 27.507 93.9296C27.7739 93.9326 28.0405 93.9151 28.3045 93.8772C28.8353 93.8056 29.3553 93.6725 29.8531 93.4807C30.1007 93.3898 30.3391 93.2771 30.5655 93.1441L31.2662 92.7326C31.7332 92.506 32.115 92.1436 32.3579 91.6966C32.4843 91.1957 32.4311 90.6682 32.207 90.2004C32.0402 89.6988 31.7568 89.2408 31.3785 88.8613C31.8032 89.2074 32.133 89.6493 32.3386 90.148C32.4537 90.3944 32.5381 90.653 32.5902 90.9186C32.6637 91.1921 32.6637 91.4791 32.5902 91.7527C32.4954 92.0226 32.3253 92.2621 32.0986 92.4446C31.8894 92.6241 31.6654 92.7867 31.4288 92.9309L30.7319 93.3573C30.4941 93.5041 30.2426 93.6293 29.9809 93.7313C29.4571 93.9167 28.9127 94.0422 28.3587 94.1054C28.0802 94.1397 27.7993 94.1534 27.5186 94.1465C27.3741 94.1402 27.2304 94.1227 27.0889 94.0942C26.9349 94.064 26.7927 93.9927 26.6785 93.8884C26.4836 93.6924 26.3109 93.4767 26.1636 93.2451C26.0087 93.0207 25.8655 92.7962 25.73 92.5643C25.4435 92.1267 25.1841 91.6591 24.9518 91.1804Z" fill="#263238"/>
<path d="M19.7026 96.078C20.015 95.9764 20.3346 95.8964 20.6588 95.8386C20.9802 95.7788 21.3054 95.7339 21.6344 95.7002L21.557 95.8311C21.4409 95.5917 21.3325 95.3524 21.2318 95.1055C21.1266 94.8618 21.0374 94.6119 20.9647 94.3574C21.2357 94.8175 21.4912 95.2813 21.739 95.7526L21.797 95.8648L21.6654 95.8835C21.3441 95.9246 21.0189 95.9583 20.6937 95.992L19.7026 96.078Z" fill="#263238"/>
<path d="M63.0395 90.7796C63.0395 90.7796 72.3 96.1396 83.1711 96.1396C92.5981 96.1396 101.367 90.4467 101.367 90.4467C101.367 90.4467 94.4564 59.8614 88.3279 52.0327C84.379 46.9944 78.8893 48.0454 76.1173 51.7409C71.1812 58.2867 63.0395 90.7796 63.0395 90.7796Z" fill="#477FFF"/>
<g opacity="0.1">
<path d="M80.9723 73.9981L80.8135 73.8784L80.7361 73.8223L80.7129 73.8036C80.3761 73.5493 80.0431 73.2837 79.7295 72.9994C79.5282 72.8236 79.3424 72.6254 79.1488 72.4496C78.9552 72.2738 78.7617 72.0755 78.5991 71.8623C78.2424 71.4548 77.9176 71.0222 77.6273 70.5682C77.3262 70.1096 77.0671 69.6265 76.853 69.1244C76.7872 68.9673 76.7253 68.8102 76.6672 68.6493L76.6091 68.4922C76.3304 67.6881 76.1407 66.8764 75.9277 66.1021C75.7961 65.6121 75.6606 65.1296 75.498 64.6546C75.3434 64.1822 75.1638 63.7178 74.9599 63.2631C74.7818 62.8554 74.5727 62.4552 74.3753 62.07C74.3712 62.0565 74.3647 62.0438 74.3559 62.0326C74.0995 61.5628 73.8124 61.1093 73.4965 60.6748C73.2038 60.2683 72.8884 59.8775 72.5518 59.504C72.5092 59.4592 72.4705 59.4143 72.4241 59.3694C72.5634 58.9953 72.7067 58.6213 72.8461 58.2734C73.4415 58.7933 73.9871 59.3641 74.4759 59.9791L74.7276 60.3045L74.9638 60.6411C75.0412 60.7533 75.1147 60.8693 75.1883 60.9852C75.2619 61.1012 75.3393 61.2134 75.4051 61.3331L75.6064 61.7071C75.6722 61.8268 75.7303 61.9465 75.7922 62.0812C75.8542 62.2158 75.9123 62.3243 75.9703 62.4552C76.0284 62.5861 76.0865 62.6983 76.1407 62.8293C76.3562 63.3185 76.5461 63.8178 76.7098 64.3254C76.8646 64.8416 77.0001 65.3578 77.0969 65.8702L77.1744 66.2442L77.1976 66.349L77.2479 66.5771V66.5996L77.4144 67.3888C77.5189 67.8825 77.6351 68.3651 77.8015 68.8401C78.1032 69.7929 78.5355 70.7024 79.0869 71.5444C79.6446 72.3882 80.2508 73.2011 80.9026 73.9794L80.9723 73.9981Z" fill="black"/>
<path d="M85.3157 67.861C85.3157 67.861 85.7029 65.8898 81.9553 65.8337C78.8078 65.7925 77.2592 66.5481 77.2592 66.5481C77.2592 66.5481 79.9692 67.7824 81.3707 68.2874C83.1864 68.9644 85.0873 68.9644 85.3157 67.861Z" fill="black"/>
<path d="M80.7514 57.0428C80.7514 57.0428 80.5075 55.0492 76.9187 56.0666C73.8989 56.9194 72.6601 58.0864 72.6601 58.0864C72.6601 58.0864 75.6411 58.4866 77.12 58.5726C79.048 58.6886 80.8637 58.1462 80.7514 57.0428Z" fill="black"/>
<path d="M82.3272 62.2609C82.3272 62.2609 81.278 60.9817 79.23 63.1661C77.5227 65.0064 77.1588 66.3454 77.1588 66.3454C77.1588 66.3454 79.4042 65.3916 80.4689 64.8493C81.8742 64.1012 82.8924 62.9791 82.3272 62.2609Z" fill="black"/>
<path d="M74.1351 74.9479C74.1351 74.9479 72.4085 74.342 74.0422 71.5816C75.4166 69.2438 76.7058 68.4434 76.7058 68.4434C76.7058 68.4434 76.458 71.0018 76.2374 72.2474C75.947 73.8782 75.0914 75.2771 74.1351 74.9479Z" fill="black"/>
<path d="M71.8277 69.7675C71.8277 69.7675 69.7797 69.1691 71.4986 65.8326C72.9466 63.0273 74.3984 62.0137 74.3984 62.0137C74.3984 62.0137 74.2745 65.006 74.1003 66.476C73.868 68.3986 72.9659 70.0855 71.8277 69.7675Z" fill="black"/>
<path d="M85.3586 79.0849C85.3586 79.0849 84.0036 80.207 82.3234 77.5551C80.9065 75.3108 80.8135 73.8633 80.8135 73.8633C80.8135 73.8633 82.9583 75.2846 83.9572 76.0626C85.2657 77.0763 86.0942 78.4453 85.3586 79.0849Z" fill="black"/>
<path d="M79.1681 80.4354C79.1681 80.4354 77.4143 80.0614 78.6028 77.1701C79.5978 74.7276 80.736 73.7812 80.736 73.7812C80.736 73.7812 80.8599 76.2911 80.8212 77.5217C80.7708 79.1487 80.1437 80.615 79.1681 80.4354Z" fill="black"/>
<path d="M100.341 91.0313C100.074 91.1847 99.7526 91.3642 99.3886 91.5587C98.8517 91.1911 98.3444 90.7848 97.871 90.3431C97.6775 90.1685 97.4916 89.9853 97.3135 89.7932L97.1393 89.6062C97.0464 89.5052 96.9535 89.4042 96.8644 89.2995L96.6051 88.9816C96.516 88.8768 96.4347 88.7646 96.3534 88.6562C96.2721 88.5477 96.1869 88.4392 96.1134 88.3233L95.885 87.9829C95.8114 87.8669 95.7417 87.751 95.672 87.635C95.6023 87.5191 95.5327 87.4031 95.4668 87.2872C95.401 87.1712 95.3313 87.0515 95.2694 86.9318C95.0175 86.4547 94.7914 85.9653 94.5919 85.4656C94.3944 84.9644 94.2241 84.4557 94.0731 83.9694L93.6434 82.4733L93.5272 82.0992C93.5272 82.0581 93.5001 82.0132 93.4885 81.9721C93.3879 81.6653 93.2795 81.3586 93.1633 81.0631C92.793 80.13 92.2943 79.2493 91.6806 78.4448C91.1101 77.6951 90.4948 76.9782 89.8377 76.2979C89.8361 76.2917 89.8361 76.2853 89.8377 76.2791L89.6674 76.0996L89.8068 76.1894L89.8687 76.2305C89.8819 76.2353 89.8939 76.243 89.9036 76.253H89.9345C90.2907 76.4849 90.643 76.728 90.9798 77.001C91.1966 77.1619 91.3979 77.3377 91.6031 77.5097C91.8083 77.6818 91.9903 77.8838 92.1955 78.0558C92.5812 78.4375 92.937 78.8464 93.2601 79.279C93.5866 79.7152 93.8729 80.1783 94.1157 80.6629C94.1276 80.6846 94.138 80.7071 94.1467 80.7302C94.1893 80.805 94.2241 80.8799 94.259 80.9584C94.2604 80.9696 94.2604 80.9809 94.259 80.9921C94.6461 81.8598 94.9442 82.7613 95.2423 83.6104C95.4088 84.0891 95.5791 84.5642 95.7766 85.0205C95.974 85.4768 96.1831 85.9331 96.4192 86.3745C96.7826 87.0702 97.2047 87.7358 97.6813 88.3644C97.7433 88.4504 97.8091 88.5327 97.8788 88.6188L98.0723 88.8544C98.3937 89.2385 98.7361 89.6056 99.0983 89.9541C99.4622 90.3019 99.8455 90.6386 100.26 90.9603L100.341 91.0313Z" fill="black"/>
<path d="M90.3761 87.6388C90.3761 87.6388 89.6444 89.509 93.3145 90.2122C96.4117 90.7957 98.0648 90.3169 98.0648 90.3169C98.0648 90.3169 95.6103 88.6337 94.3366 87.8969C92.6719 86.9356 90.8019 86.6102 90.3761 87.6388Z" fill="black"/>
<path d="M89.3693 80.5836C89.3693 80.5836 88.9628 81.6272 90.9992 82.0125C92.7143 82.3379 93.6396 82.0686 93.6396 82.0686C93.6396 82.0686 92.2768 81.1372 91.5683 80.7257C90.6469 80.1834 89.6055 80.0113 89.3693 80.5836Z" fill="black"/>
<path d="M95.374 75.1347C95.374 75.1347 96.8606 75.4265 95.8734 77.8877C95.0488 79.9561 94.0925 80.7603 94.0925 80.7603C94.0925 80.7603 93.9725 78.6432 93.9996 77.5959C94.0306 76.2307 94.5494 74.9889 95.374 75.1347Z" fill="black"/>
<path d="M98.1653 78.1573C98.1653 78.1573 98.9396 79.1186 96.9303 80.1397C95.2501 81 94.2009 81 94.2009 81C94.2009 81 95.3159 79.6161 95.9199 78.9727C96.7096 78.1349 97.7317 77.6336 98.1653 78.1573Z" fill="black"/>
<path d="M94.2707 70.9991C94.2707 70.9991 95.6799 72.0726 93.2796 74.1672C91.2587 75.929 89.7953 76.2881 89.7953 76.2881C89.7953 76.2881 90.8406 73.9877 91.4445 72.8918C92.2575 71.4629 93.4809 70.4194 94.2707 70.9991Z" fill="black"/>
<path d="M100.105 85.301C100.074 85.3758 100.039 85.4544 100 85.5329C99.4917 86.6798 98.7701 87.7269 97.871 88.6225C97.7393 88.7422 97.6658 88.7983 97.6658 88.7983C97.6658 88.7983 97.6658 88.6337 97.6658 88.3681C97.6658 87.5976 97.7122 85.9743 97.7974 85.0541C97.9252 83.6103 98.5059 82.3162 99.315 82.2227C99.6131 83.3336 99.8764 84.3659 100.105 85.301Z" fill="black"/>
<path d="M89.3499 69.5128C89.3499 69.5128 91.1347 69.3669 90.8637 72.4789C90.6314 75.0972 89.8261 76.3203 89.8261 76.3203C89.8261 76.3203 88.9628 73.9489 88.6298 72.752C88.1962 71.2072 88.3627 69.61 89.3499 69.5128Z" fill="black"/>
</g>
<path d="M84.7661 55.1721C82.691 55.1721 80.0235 53.1972 78.4091 50.923C78.2969 50.7659 78.3782 49.0004 78.3665 46.8534C78.3665 45.548 78.3123 44.093 78.173 42.7726C78.142 42.4996 86.9689 43.9434 86.9689 43.9434C86.6545 45.6448 86.5557 47.3769 86.6747 49.1014C86.6958 49.2841 86.7347 49.4644 86.7908 49.64C86.7908 49.6662 86.7908 49.6924 86.8141 49.7298C87.0967 50.7435 87.3561 55.1721 84.7661 55.1721Z" fill="#EEE2DF"/>
<path d="M78.7072 42.7539C79.3421 44.9533 81.3514 50.2123 85.943 49.8607C86.2367 49.8412 86.5281 49.7974 86.8141 49.7298C86.8125 49.6991 86.806 49.6688 86.7947 49.64C86.7407 49.4651 86.7019 49.2862 86.6786 49.1051C86.5574 47.3781 86.6562 45.6433 86.9728 43.9396C86.9728 43.9396 80.6004 42.8998 78.7072 42.7539Z" fill="#263238"/>
<path d="M77.1974 32.1458C76.1521 35.0671 77.4491 43.6588 79.5513 45.6375C82.602 48.5064 87.751 48.9515 90.3178 45.3756C92.7994 41.9083 90.9102 30.7394 88.5447 28.9178C85.0604 26.2547 78.7383 27.8182 77.1974 32.1458Z" fill="#EEE2DF"/>
<path d="M82.6449 35.8714C82.907 35.8177 83.1655 35.749 83.4192 35.6657C83.702 35.6301 83.9647 35.5051 84.1663 35.3103C84.2173 35.2373 84.2419 35.15 84.2363 35.0621C84.2307 34.9742 84.1952 34.8905 84.1354 34.8241C83.996 34.7106 83.828 34.6348 83.6484 34.6046C83.4688 34.5744 83.2842 34.5907 83.1133 34.652C82.7473 34.7252 82.4227 34.928 82.2035 35.2206C82.1577 35.2898 82.1335 35.3704 82.134 35.4527C82.1344 35.5349 82.1595 35.6152 82.2061 35.684C82.2528 35.7528 82.319 35.8071 82.3969 35.8403C82.4747 35.8735 82.5608 35.8843 82.6449 35.8714Z" fill="#263238"/>
<path d="M88.9164 35.234C88.6488 35.2359 88.3814 35.2247 88.115 35.2003C87.8305 35.2278 87.5446 35.1633 87.302 35.0171C87.2387 34.9576 87.1971 34.8799 87.1831 34.7957C87.1692 34.7115 87.1837 34.6251 87.2246 34.5495C87.3342 34.4096 87.481 34.301 87.6493 34.2351C87.8177 34.1693 88.0013 34.1487 88.1808 34.1755C88.5544 34.1657 88.9181 34.2926 89.199 34.5308C89.2517 34.5894 89.2868 34.6608 89.3006 34.7373C89.3144 34.8138 89.3063 34.8924 89.2772 34.9648C89.2481 35.0371 89.1991 35.1004 89.1356 35.1479C89.072 35.1953 88.9962 35.2251 88.9164 35.234Z" fill="#263238"/>
<path d="M84.4913 42.8919C84.65 43.0154 84.8126 43.1874 85.0333 43.1837C85.2566 43.1577 85.4717 43.0863 85.6643 42.9742C85.6643 42.9742 85.7069 42.9742 85.6953 43.0004C85.6189 43.1201 85.5108 43.2178 85.3821 43.2836C85.2535 43.3493 85.109 43.3807 84.9636 43.3744C84.8376 43.3561 84.7201 43.3018 84.6263 43.2185C84.5324 43.1352 84.4666 43.0267 84.4371 42.9069C84.439 42.9019 84.442 42.8974 84.4461 42.8938C84.4501 42.8902 84.4549 42.8875 84.4602 42.8861C84.4655 42.8846 84.4711 42.8844 84.4765 42.8854C84.4819 42.8864 84.4869 42.8886 84.4913 42.8919Z" fill="#263238"/>
<path d="M84.9443 41.0895C85.121 41.3048 85.3419 41.4824 85.5931 41.6112C85.8443 41.7399 86.1203 41.817 86.4039 41.8376C86.6511 41.8594 86.9003 41.8455 87.1433 41.7965C87.191 41.7927 87.2379 41.7826 87.2827 41.7666L87.4143 41.7366C87.4453 41.727 87.4722 41.7079 87.491 41.6823C87.5098 41.6567 87.5196 41.6259 87.5189 41.5945C87.5229 41.5748 87.5229 41.5544 87.5189 41.5347V41.4823C87.4879 41.0334 87.3718 40.3602 87.3718 40.3602C87.5498 40.4275 88.4519 40.7155 88.4132 40.4836C88.0918 38.5573 87.7318 36.4178 86.9923 34.5663C86.9906 34.5594 86.9874 34.5529 86.983 34.5472C86.9787 34.5415 86.9732 34.5367 86.9669 34.5331C86.9542 34.5257 86.939 34.5235 86.9246 34.527C86.9102 34.5305 86.8979 34.5393 86.8902 34.5516C86.8826 34.5639 86.8803 34.5786 86.8839 34.5925C87.1162 36.4627 87.6892 38.2655 87.9525 40.132C87.6315 40.0243 87.2967 39.9601 86.9575 39.9412C86.8917 39.9674 87.2053 41.2466 87.2053 41.4374C87.2064 41.4449 87.2064 41.4524 87.2053 41.4599C86.431 41.6319 85.827 41.4599 85.0179 41.0297C84.9443 41.0035 84.9017 41.0447 84.9443 41.0895Z" fill="#263238"/>
<path d="M86.8376 41.6313C86.5989 41.9653 86.2766 42.2356 85.9007 42.4168C85.6934 42.5076 85.462 42.5337 85.2386 42.4916C84.747 42.3944 84.7121 41.968 84.7779 41.5977C84.8158 41.4008 84.8768 41.2088 84.9599 41.0254C85.5032 41.4151 86.1609 41.6274 86.8376 41.6313Z" fill="#263238"/>
<path d="M85.916 42.4054C85.7087 42.4962 85.4774 42.5223 85.254 42.4802C84.7623 42.383 84.7275 41.9566 84.7933 41.5863C85.0487 41.5801 85.2987 41.6578 85.5026 41.8065C85.7065 41.9553 85.8522 42.1664 85.916 42.4054Z" fill="#FF9BBC"/>
<path d="M84.0695 37.386C84.0695 37.3636 84.0231 37.4197 84.027 37.4459C84.1044 38.0518 84.0889 38.7625 83.5353 39.0169C83.5353 39.0169 83.5353 39.0543 83.5353 39.0505C84.2321 38.8934 84.2476 37.9508 84.0695 37.386Z" fill="#263238"/>
<path d="M84.1507 38.0481C84.1387 38.2159 84.0798 38.3775 83.9804 38.5156C83.9207 38.5885 83.8464 38.6489 83.7619 38.6933C83.6774 38.7376 83.5845 38.765 83.4887 38.7737C83.391 38.7801 83.2931 38.7641 83.2029 38.727C83.1128 38.69 83.033 38.6329 82.9699 38.5605C82.8611 38.432 82.7843 38.2809 82.7454 38.1192C82.7231 38.0232 82.7089 37.9256 82.7028 37.8274C82.6822 37.623 82.7114 37.4168 82.788 37.2252C82.7907 37.3742 82.8115 37.5223 82.8499 37.6666C82.8805 37.7943 82.922 37.9194 82.9738 38.0406C83.0783 38.295 83.2564 38.5007 83.4694 38.4708C83.6823 38.4408 83.8565 38.2688 83.9146 37.9995C83.9785 37.7206 84.0123 37.436 84.0152 37.1504C84.1339 37.4349 84.1803 37.7427 84.1507 38.0481Z" fill="#263238"/>
<path d="M87.8751 36.9974C87.8751 36.9712 87.9254 37.0236 87.9254 37.0497C87.9254 37.6632 88.0609 38.3626 88.6416 38.5459C88.6416 38.5459 88.6416 38.5833 88.6416 38.5796C87.9331 38.5122 87.786 37.5809 87.8751 36.9974Z" fill="#263238"/>
<path d="M87.8906 37.6628C87.9288 37.8267 88.0117 37.9778 88.1307 38.1004C88.2001 38.1644 88.2822 38.2143 88.3719 38.247C88.4617 38.2798 88.5574 38.2948 88.6533 38.2911C88.7515 38.284 88.8465 38.2546 88.9306 38.2052C89.0147 38.1558 89.0855 38.0878 89.1372 38.0069C89.2273 37.8668 89.2804 37.7076 89.2921 37.5431C89.2998 37.4447 89.2998 37.3459 89.2921 37.2476C89.2823 37.0425 89.2226 36.8426 89.1179 36.6641C89.1353 36.8107 89.1353 36.9588 89.1179 37.1054C89.1063 37.239 89.0843 37.3715 89.0521 37.5019C88.9824 37.7675 88.8391 37.9919 88.6223 37.9919C88.4055 37.9919 88.2158 37.846 88.1113 37.5879C88.0101 37.321 87.9349 37.0455 87.8868 36.7651C87.8163 37.0606 87.8176 37.3678 87.8906 37.6628Z" fill="#263238"/>
<path d="M90.322 31.9327C87.3022 34.4051 82.5171 31.5885 82.5171 31.5885C82.3128 32.3011 81.8756 32.9307 81.2707 33.3837C80.6659 33.8366 79.9257 34.0886 79.1606 34.1021C79.1606 34.1021 79.0831 39.4771 77.6313 39.608C75.4207 39.8137 73.9767 32.6358 74.5342 31.1434C75.0916 29.651 76.9151 29.1049 76.9151 29.1049C76.9151 29.1049 76.9151 27.9828 78.1927 26.8607C79.5825 25.5964 84.9484 26.5839 84.9484 26.5839C85.1786 25.8812 85.5764 25.2406 86.1098 24.7137C86.2378 24.5842 86.3916 24.4812 86.5619 24.4108C86.7323 24.3404 86.9156 24.3041 87.1009 24.3041C87.2862 24.3041 87.4696 24.3404 87.6399 24.4108C87.8102 24.4812 87.9641 24.5842 88.092 24.7137C87.8577 25.1332 87.7253 25.5988 87.7049 26.0752C87.6081 27.6574 88.9244 27.5264 88.7618 26.1163C88.7228 25.5863 88.4862 25.088 88.0959 24.7137C88.6495 23.7299 89.6755 23.3222 90.3723 23.7524C91.6189 24.4892 92.8462 29.8679 90.322 31.9327Z" fill="#263238"/>
<path d="M78.6842 32.4409C78.6831 32.4302 78.6795 32.42 78.6737 32.4108C78.6679 32.4017 78.66 32.394 78.6507 32.3882C78.6413 32.3824 78.6308 32.3787 78.6198 32.3775C78.6088 32.3762 78.5976 32.3773 78.5871 32.3808C78.5766 32.3843 78.5671 32.39 78.5592 32.3975C78.5513 32.4051 78.5453 32.4142 78.5416 32.4243C78.5379 32.4344 78.5366 32.4452 78.5379 32.4558C78.5391 32.4665 78.5428 32.4767 78.5487 32.4858C78.9016 33.5237 79.1251 34.5985 79.2146 35.6876C79.261 36.7648 78.9552 39.5178 77.3292 39.3569C77.321 39.3554 77.3127 39.3555 77.3046 39.3572C77.2965 39.3588 77.2888 39.362 77.2819 39.3665C77.2751 39.371 77.2693 39.3768 77.2648 39.3835C77.2602 39.3902 77.2571 39.3977 77.2556 39.4055C77.2541 39.4134 77.2542 39.4215 77.2559 39.4293C77.2576 39.4371 77.2609 39.4445 77.2655 39.4511C77.2702 39.4577 77.2762 39.4634 77.2831 39.4678C77.29 39.4721 77.2978 39.4751 77.3059 39.4766C78.4054 39.8506 78.9939 38.4891 79.2417 37.5503C79.6946 35.8484 79.2842 34.0455 78.6842 32.4409Z" fill="#263238"/>
<path d="M90.2638 23.6465C92.1646 25.5504 92.8847 28.4492 91.5762 30.8767C89.9308 33.9289 85.7961 32.4738 83.3184 31.4864C83.1945 31.4378 83.1015 31.6098 83.2254 31.6622C85.6412 32.6945 89.8263 34.0598 91.5878 31.262C93.1441 28.7783 92.3814 25.5728 90.2638 23.6465Z" fill="#263238"/>
<path d="M77.3795 29.0412C75.2347 29.4788 73.7868 30.6234 73.8061 32.8639C73.8423 33.9928 74.1204 35.1021 74.6229 36.1219C75.1253 37.1417 75.8412 38.0497 76.7252 38.7887C76.8104 38.8598 76.9149 38.7401 76.8414 38.6653C75.5596 37.4682 74.6503 35.9483 74.2165 34.2778C73.9261 33.006 73.9339 31.5547 74.7624 30.4588C75.3586 29.6733 76.4929 29.3853 77.4066 29.1197C77.4174 29.1163 77.4263 29.1088 77.4314 29.099C77.4365 29.0892 77.4373 29.0778 77.4337 29.0674C77.4301 29.057 77.4224 29.0483 77.4122 29.0434C77.402 29.0385 77.3903 29.0377 77.3795 29.0412Z" fill="#263238"/>
<path d="M85.6451 26.9423C82.7686 25.6069 77.2479 24.6157 76.9343 29.0593C76.9343 29.0967 76.9963 29.1005 77.0001 29.0593C77.5731 24.5708 82.6873 26.067 85.5987 27.0545C85.6761 27.0694 85.7071 26.9722 85.6451 26.9423Z" fill="#263238"/>
<path d="M78.8232 39.1667C78.8232 39.1667 76.8875 36.3763 75.5635 37.0421C74.2394 37.7079 75.6912 41.7363 77.205 42.3086C77.3937 42.3946 77.5984 42.4428 77.8069 42.4504C78.0154 42.458 78.2234 42.4249 78.4183 42.3529C78.6131 42.2809 78.791 42.1717 78.9411 42.0316C79.0912 41.8916 79.2104 41.7237 79.2917 41.5381L78.8232 39.1667Z" fill="#EEE2DF"/>
<path d="M75.9971 38.1875C75.993 38.1892 75.9895 38.1921 75.987 38.1958C75.9845 38.1994 75.9832 38.2037 75.9832 38.2081C75.9832 38.2124 75.9845 38.2167 75.987 38.2204C75.9895 38.224 75.993 38.2269 75.9971 38.2286C77.0579 38.6625 77.6038 39.6276 77.9793 40.6262C77.9195 40.5218 77.8368 40.4311 77.737 40.3606C77.6373 40.2901 77.5228 40.2414 77.4016 40.2179C77.2804 40.1944 77.1554 40.1967 77.0352 40.2246C76.915 40.2524 76.8025 40.3053 76.7056 40.3794C76.6746 40.3794 76.7056 40.4392 76.7327 40.4355C76.921 40.3809 77.1222 40.3839 77.3087 40.4442C77.4952 40.5045 77.6577 40.619 77.7741 40.7721C77.9671 41.0299 78.1307 41.307 78.2619 41.5988C78.3123 41.6923 78.4865 41.6474 78.4516 41.5389V41.5165C78.4904 40.1998 77.4644 38.3446 75.9971 38.1875Z" fill="#263238"/>
<path d="M68.9278 19.1957L70.4687 18.9227L70.8132 17.3555L71.1578 18.9227L72.6948 19.1957L71.1617 19.5586L70.8132 21.0398L70.4609 19.5586L68.9278 19.1957Z" fill="#477FFF"/>
<path d="M44.6615 64.5296L46.2023 64.2528L46.5469 62.6855L46.8914 64.2528L48.4284 64.5296L46.8953 64.8924L46.5469 66.3699L46.1946 64.8924L44.6615 64.5296Z" fill="#477FFF"/>
<path d="M105.85 34.4182L107.391 34.1415L107.736 32.5742L108.08 34.1415L109.617 34.4182L108.084 34.7811L107.736 36.2623L107.383 34.7811L105.85 34.4182Z" fill="#477FFF"/>
<path d="M113.663 70.1215L115.204 69.8485L115.548 68.2812L115.893 69.8485L117.43 70.1215L115.897 70.4844L115.548 71.9656L115.196 70.4844L113.663 70.1215Z" fill="#477FFF"/>
<path d="M62.2457 57.8051L63.7865 57.5321L64.1311 55.9648L64.4756 57.5321L66.0126 57.8089L64.4795 58.1679L64.1311 59.6491L63.7788 58.1679L62.2457 57.8051Z" fill="#477FFF"/>
<path d="M35.4281 73.9505L36.2914 73.7971L36.4811 72.9219L36.6747 73.7971L37.5341 73.9542L36.6786 74.1562L36.4811 74.9828L36.2875 74.1562L35.4281 73.9505Z" fill="#477FFF"/>
<path d="M93.1011 29.0284L93.9645 28.8751L94.1542 27.9961L94.3477 28.8751L95.2072 29.0284L94.3516 29.2304L94.1542 30.0571L93.9606 29.2304L93.1011 29.0284Z" fill="#477FFF"/>
<path d="M91.3551 46.4738L92.2146 46.3204L92.4081 45.4414L92.5978 46.3204L93.4612 46.4738L92.6017 46.6757L92.4081 47.5024L92.2107 46.6757L91.3551 46.4738Z" fill="#477FFF"/>
<path d="M78.2696 13.6712L79.1291 13.5178L79.3227 12.6426L79.5162 13.5178L80.3757 13.6712L79.5201 13.8732L79.3227 14.7035L79.1252 13.8732L78.2696 13.6712Z" fill="#477FFF"/>
<path d="M106.384 60.6808L107.244 60.5237L107.433 59.6484L107.627 60.5237L108.49 60.6808L107.631 60.8828L107.433 61.7094L107.24 60.8828L106.384 60.6808Z" fill="#477FFF"/>
<path d="M111.499 27.7356L112.362 27.5823L112.552 26.707L112.745 27.5823L113.605 27.7356L112.749 27.9376L112.552 28.768L112.358 27.9376L111.499 27.7356Z" fill="#477FFF"/>
<path d="M112.552 52.3058L113.411 52.1487L113.605 51.2734L113.798 52.1487L114.658 52.3058L113.802 52.5078L113.605 53.3344L113.407 52.5078L112.552 52.3058Z" fill="#477FFF"/>
<path d="M51.3049 68.2667L52.1644 68.1134L52.358 67.2344L52.5515 68.1134L53.411 68.2667L52.5515 68.4687L52.358 69.2953L52.1605 68.4687L51.3049 68.2667Z" fill="#477FFF"/>
<path d="M66.1907 28.4788C66.2564 28.4788 66.3195 28.4536 66.3659 28.4087C66.4124 28.3638 66.4385 28.3029 66.4385 28.2394C66.4385 28.1759 66.4124 28.115 66.3659 28.0701C66.3195 28.0252 66.2564 28 66.1907 28C66.125 28 66.062 28.0252 66.0155 28.0701C65.9691 28.115 65.943 28.1759 65.943 28.2394C65.943 28.3029 65.9691 28.3638 66.0155 28.4087C66.062 28.4536 66.125 28.4788 66.1907 28.4788Z" fill="#477FFF"/>
<path d="M128.711 71.9278C128.772 71.9205 128.828 71.8919 128.868 71.8475C128.909 71.8031 128.931 71.7458 128.931 71.6866C128.931 71.6273 128.909 71.5701 128.868 71.5256C128.828 71.4812 128.772 71.4526 128.711 71.4453C128.65 71.4526 128.594 71.4812 128.553 71.5256C128.513 71.5701 128.49 71.6273 128.49 71.6866C128.49 71.7458 128.513 71.8031 128.553 71.8475C128.594 71.8919 128.65 71.9205 128.711 71.9278Z" fill="#477FFF"/>
<path d="M54.8201 40.7032C54.881 40.6959 54.937 40.6673 54.9776 40.6229C55.0182 40.5785 55.0406 40.5212 55.0406 40.462C55.0406 40.4027 55.0182 40.3455 54.9776 40.301C54.937 40.2566 54.881 40.228 54.8201 40.2207C54.7593 40.228 54.7033 40.2566 54.6627 40.301C54.6221 40.3455 54.5996 40.4027 54.5996 40.462C54.5996 40.5212 54.6221 40.5785 54.6627 40.6229C54.7033 40.6673 54.7593 40.6959 54.8201 40.7032Z" fill="#477FFF"/>
<path d="M117.422 32.586C117.483 32.5787 117.539 32.5501 117.579 32.5057C117.62 32.4613 117.642 32.404 117.642 32.3448C117.642 32.2855 117.62 32.2283 117.579 32.1838C117.539 32.1394 117.483 32.1109 117.422 32.1035C117.361 32.1109 117.305 32.1394 117.264 32.1838C117.224 32.2283 117.201 32.2855 117.201 32.3448C117.201 32.404 117.224 32.4613 117.264 32.5057C117.305 32.5501 117.361 32.5787 117.422 32.586Z" fill="#477FFF"/>
<path d="M103.125 48.8599C103.167 48.8538 103.206 48.8333 103.233 48.8021C103.261 48.7708 103.277 48.731 103.277 48.6897C103.277 48.6485 103.261 48.6086 103.233 48.5774C103.206 48.5461 103.167 48.5256 103.125 48.5195C103.083 48.5256 103.044 48.5461 103.016 48.5774C102.988 48.6086 102.973 48.6485 102.973 48.6897C102.973 48.731 102.988 48.7708 103.016 48.8021C103.044 48.8333 103.083 48.8538 103.125 48.8599Z" fill="#477FFF"/>
<path d="M84.0111 17.3658C84.0533 17.3597 84.0919 17.3392 84.1197 17.3079C84.1476 17.2767 84.163 17.2368 84.163 17.1956C84.163 17.1543 84.1476 17.1145 84.1197 17.0832C84.0919 17.052 84.0533 17.0315 84.0111 17.0254C83.9688 17.0315 83.9303 17.052 83.9024 17.0832C83.8745 17.1145 83.8592 17.1543 83.8592 17.1956C83.8592 17.2368 83.8745 17.2767 83.9024 17.3079C83.9303 17.3392 83.9688 17.3597 84.0111 17.3658Z" fill="#477FFF"/>
<path d="M101.421 17.2232C101.463 17.2171 101.502 17.1966 101.53 17.1654C101.558 17.1341 101.573 17.0943 101.573 17.053C101.573 17.0118 101.558 16.9719 101.53 16.9406C101.502 16.9094 101.463 16.8889 101.421 16.8828C101.379 16.8889 101.34 16.9094 101.312 16.9406C101.284 16.9719 101.269 17.0118 101.269 17.053C101.269 17.0943 101.284 17.1341 101.312 17.1654C101.34 17.1966 101.379 17.2171 101.421 17.2232Z" fill="#477FFF"/>
<path d="M65.9313 43.1524C66.0507 43.142 66.1617 43.0888 66.2426 43.0034C66.3234 42.9179 66.3683 42.8063 66.3683 42.6905C66.3683 42.5746 66.3234 42.463 66.2426 42.3775C66.1617 42.2921 66.0507 42.2389 65.9313 42.2285C65.8119 42.2389 65.7009 42.2921 65.62 42.3775C65.5391 42.463 65.4943 42.5746 65.4943 42.6905C65.4943 42.8063 65.5391 42.9179 65.62 43.0034C65.7009 43.0888 65.8119 43.142 65.9313 43.1524Z" fill="#477FFF"/>
<path d="M99.1601 26.2715C99.2795 26.2611 99.3906 26.208 99.4714 26.1225C99.5523 26.037 99.5971 25.9254 99.5971 25.8096C99.5971 25.6938 99.5523 25.5822 99.4714 25.4967C99.3906 25.4112 99.2795 25.358 99.1601 25.3477C99.0408 25.358 98.9297 25.4112 98.8489 25.4967C98.768 25.5822 98.7231 25.6938 98.7231 25.8096C98.7231 25.9254 98.768 26.037 98.8489 26.1225C98.9297 26.208 99.0408 26.2611 99.1601 26.2715Z" fill="#477FFF"/>
</svg>
