<svg width="16" height="17" viewBox="0 0 16 17" fill="none" xmlns="http://www.w3.org/2000/svg">
<path fill-rule="evenodd" clip-rule="evenodd" d="M12.6667 13.1667H3.33333V3.83333H6.66667C7.03486 3.83333 7.33333 3.53486 7.33333 3.16667C7.33333 2.79848 7.03486 2.5 6.66667 2.5H3.33333C2.59333 2.5 2 3.1 2 3.83333V13.1667C2 13.9 2.59333 14.5 3.33333 14.5H12.6667C13.4 14.5 14 13.9 14 13.1667V9.16667C14 8.79848 13.7015 8.5 13.3333 8.5C12.9651 8.5 12.6667 8.79848 12.6667 9.16667V13.1667ZM10 2.5C9.63181 2.5 9.33333 2.79848 9.33333 3.16667C9.33333 3.53486 9.63181 3.83333 10 3.83333H11.7267L7.52895 8.03105C7.26938 8.29062 7.26938 8.71147 7.52895 8.97105C7.78853 9.23062 8.20938 9.23062 8.46895 8.97105L12.6667 4.77333V6.5C12.6667 6.86819 12.9651 7.16667 13.3333 7.16667C13.7015 7.16667 14 6.86819 14 6.5V2.5462C14 2.52069 13.9793 2.5 13.9538 2.5H10Z" fill="#0562CB"/>
</svg>
